<?xml version="1.0" encoding="UTF-8"?>
<!DOCTYPE svg PUBLIC "-//W3C//DTD SVG 1.1//EN" "http://www.w3.org/Graphics/SVG/1.1/DTD/svg11.dtd">
<svg xmlns="http://www.w3.org/2000/svg" version="1.1" width="561px" height="561px" viewBox="0 0 561 561">
<g><path style="opacity:1" fill="#fefefe" d="M -0.5,-0.5 C 186.5,-0.5 373.5,-0.5 560.5,-0.5C 560.5,186.5 560.5,373.5 560.5,560.5C 373.5,560.5 186.5,560.5 -0.5,560.5C -0.5,373.5 -0.5,186.5 -0.5,-0.5 Z"/></g>
<g><path style="opacity:1" fill="#9dd0b0" d="M 327.5,21.5 C 327.167,46.5089 327.5,71.5089 328.5,96.5C 333.873,99.0082 338.206,102.675 341.5,107.5C 337.669,104.081 333.335,101.414 328.5,99.5C 327.4,98.3951 326.733,97.0618 326.5,95.5C 326.169,70.661 326.502,45.9944 327.5,21.5 Z"/></g>
<g><path style="opacity:1" fill="#7ec694" d="M 331.5,20.5 C 338.452,22.4706 345.118,25.304 351.5,29C 352.71,30.0391 353.71,31.2058 354.5,32.5C 355.343,41.556 357.51,49.8893 361,57.5C 361.904,72.0192 362.237,86.6858 362,101.5C 364.359,104.124 364.025,104.791 361,103.5C 360.164,105.842 358.83,107.842 357,109.5C 355.84,107.203 354.84,107.536 354,110.5C 352.095,109.708 349.929,109.708 347.5,110.5C 349.278,112.264 350.611,114.264 351.5,116.5C 348.126,113.49 344.792,110.49 341.5,107.5C 338.206,102.675 333.873,99.0082 328.5,96.5C 327.5,71.5089 327.167,46.5089 327.5,21.5C 328.568,20.5655 329.901,20.2322 331.5,20.5 Z"/></g>
<g><path style="opacity:1" fill="#d7f0e3" d="M 331.5,20.5 C 329.901,20.2322 328.568,20.5655 327.5,21.5C 326.502,45.9944 326.169,70.661 326.5,95.5C 325.337,70.67 325.17,45.67 326,20.5C 327.943,19.193 329.777,19.193 331.5,20.5 Z"/></g>
<g><path style="opacity:1" fill="#a1ce9f" d="M 365.5,54.5 C 367.175,57.5072 367.841,60.8405 367.5,64.5C 367.5,78.5 367.5,92.5 367.5,106.5C 369.099,106.768 370.432,106.434 371.5,105.5C 373.687,104.242 376.02,103.242 378.5,102.5C 376.009,105.712 372.675,107.712 368.5,108.5C 366.776,90.8387 365.776,72.8387 365.5,54.5 Z"/></g>
<g><path style="opacity:1" fill="#cce2ca" d="M 367.5,64.5 C 368.496,77.9898 368.829,91.6565 368.5,105.5C 369.5,105.5 370.5,105.5 371.5,105.5C 370.432,106.434 369.099,106.768 367.5,106.5C 367.5,92.5 367.5,78.5 367.5,64.5 Z"/></g>
<g><path style="opacity:1" fill="#c4e0c5" d="M 165.5,92.5 C 158.646,92.176 151.979,92.5093 145.5,93.5C 144.167,93.5 142.833,93.5 141.5,93.5C 142.263,92.7321 143.263,92.2321 144.5,92C 151.679,91.1787 158.679,91.3454 165.5,92.5 Z"/></g>
<g><path style="opacity:1" fill="#d3e1b9" d="M 417.5,95.5 C 411.741,95.2143 406.075,95.5476 400.5,96.5C 399.5,96.5 398.5,96.5 397.5,96.5C 401.034,94.9524 404.867,94.2857 409,94.5C 412.021,94.5022 414.854,94.8356 417.5,95.5 Z"/></g>
<g><path style="opacity:1" fill="#94cd88" d="M 145.5,93.5 C 151.979,92.5093 158.646,92.176 165.5,92.5C 167.5,93.1667 169.5,93.8333 171.5,94.5C 167.759,93.5985 165.759,94.9319 165.5,98.5C 166.5,98.5 167.5,98.5 168.5,98.5C 168.527,103.788 168.194,109.121 167.5,114.5C 167.234,116.66 166.234,118.326 164.5,119.5C 164.931,120.293 165.265,121.127 165.5,122C 163.441,123.498 162.108,125.498 161.5,128C 165.493,131.479 169.826,134.313 174.5,136.5C 170.675,135.559 167.009,134.226 163.5,132.5C 158.648,131.152 153.648,129.986 148.5,129C 149.5,128.167 150.5,127.333 151.5,126.5C 150.524,124.877 151.024,123.543 153,122.5C 154,119.167 155,115.833 156,112.5C 156.925,111.953 157.758,111.287 158.5,110.5C 156.917,106.589 155.417,102.589 154,98.5C 151.797,98.761 149.63,98.261 147.5,97C 148.337,95.9887 148.67,94.8221 148.5,93.5C 147.5,93.5 146.5,93.5 145.5,93.5 Z"/></g>
<g><path style="opacity:1" fill="#e6ebc3" d="M 434.5,98.5 C 434.5,98.1667 434.5,97.8333 434.5,97.5C 438.767,98.2556 442.767,99.589 446.5,101.5C 442.397,100.91 438.397,99.9099 434.5,98.5 Z"/></g>
<g><path style="opacity:1" fill="#4cbab2" d="M 263.5,95.5 C 264.5,95.5 265.5,95.5 266.5,95.5C 266.082,96.2216 265.416,96.7216 264.5,97C 271.524,97.1689 278.524,97.6689 285.5,98.5C 283.249,99.8175 281.249,101.484 279.5,103.5C 280.582,103.749 281.915,103.915 283.5,104C 282.833,104.333 282.167,104.667 281.5,105C 282.313,106.314 283.313,107.481 284.5,108.5C 283.098,109.842 283.431,110.676 285.5,111C 283.833,112.333 282.167,113.667 280.5,115C 278.307,114.43 276.307,114.764 274.5,116C 275.448,116.483 276.448,116.649 277.5,116.5C 277.286,118.144 277.62,119.644 278.5,121C 275.441,121.82 272.441,122.487 269.5,123C 270.711,124.844 272.044,125.678 273.5,125.5C 271.152,126.86 270.985,128.527 273,130.5C 273.333,130.167 273.667,129.833 274,129.5C 274.49,130.793 274.657,132.127 274.5,133.5C 273.209,133.263 272.209,133.596 271.5,134.5C 260.404,137.224 251.404,143.224 244.5,152.5C 244.529,148.498 246.195,145.498 249.5,143.5C 250.872,141.911 252.539,140.578 254.5,139.5C 255.747,137.958 255.747,136.458 254.5,135C 258.183,134.403 260.35,132.236 261,128.5C 267.049,127.134 267.882,124.301 263.5,120C 264.634,118.984 264.301,118.317 262.5,118C 263.453,116.296 264.453,114.63 265.5,113C 265.355,112.228 265.022,111.561 264.5,111C 265.833,110.333 267.167,109.667 268.5,109C 267.833,108.667 267.167,108.333 266.5,108C 268.886,107.716 269.552,106.716 268.5,105C 270.052,102.219 272.385,100.552 275.5,100C 269.071,100.197 262.738,100.864 256.5,102C 255.833,101.333 255.167,100.667 254.5,100C 258.312,99.9091 261.312,98.4091 263.5,95.5 Z"/></g>
<g><path style="opacity:1" fill="#80c896" d="M 140.5,93.5 C 140.833,93.5 141.167,93.5 141.5,93.5C 142.833,93.5 144.167,93.5 145.5,93.5C 146.5,93.5 147.5,93.5 148.5,93.5C 148.67,94.8221 148.337,95.9887 147.5,97C 149.63,98.261 151.797,98.761 154,98.5C 155.417,102.589 156.917,106.589 158.5,110.5C 157.758,111.287 156.925,111.953 156,112.5C 155,115.833 154,119.167 153,122.5C 151.024,123.543 150.524,124.877 151.5,126.5C 150.5,127.333 149.5,128.167 148.5,129C 153.648,129.986 158.648,131.152 163.5,132.5C 155.791,132.269 148.124,132.602 140.5,133.5C 139.048,132.698 137.382,132.198 135.5,132C 136.711,130.887 136.711,129.72 135.5,128.5C 136.878,125.603 138.544,122.936 140.5,120.5C 140.066,114.869 139.9,109.202 140,103.5C 139.147,101.875 138.147,101.542 137,102.5C 135.89,100.963 134.39,100.297 132.5,100.5C 131.188,99.8549 130.188,98.8549 129.5,97.5C 132.629,95.9784 135.963,95.145 139.5,95C 140.056,94.6174 140.389,94.1174 140.5,93.5 Z"/></g>
<g><path style="opacity:1" fill="#a9d178" d="M 417.5,95.5 C 423.309,95.3135 428.975,95.9801 434.5,97.5C 434.5,97.8333 434.5,98.1667 434.5,98.5C 431.934,98.6556 429.434,98.3223 427,97.5C 423.962,98.5446 423.962,99.8779 427,101.5C 429.099,102.287 431.266,102.62 433.5,102.5C 433.33,103.822 433.663,104.989 434.5,106C 432.968,106.7 431.968,107.866 431.5,109.5C 431.632,110.963 431.965,112.463 432.5,114C 432.095,114.945 431.428,115.612 430.5,116C 430.833,118.333 431.167,120.667 431.5,123C 425.673,121.276 420.673,122.61 416.5,127C 416.833,127.333 417.167,127.667 417.5,128C 413.551,128.807 413.551,129.307 417.5,129.5C 417.5,130.5 417.5,131.5 417.5,132.5C 410.168,133.111 402.835,133.278 395.5,133C 395.043,132.586 394.709,132.086 394.5,131.5C 396.423,130.692 398.423,130.192 400.5,130C 401.337,128.989 401.67,127.822 401.5,126.5C 408.602,126.703 413.769,123.703 417,117.5C 417.914,118.654 418.747,118.487 419.5,117C 419,116.5 418.5,116 418,115.5C 417.84,111.713 417.174,108.046 416,104.5C 415,105.5 414,106.5 413,107.5C 408.854,105.469 404.521,103.803 400,102.5C 398.739,102.759 397.739,103.426 397,104.5C 393.665,103.426 390.832,101.759 388.5,99.5C 392.924,99.7276 396.924,98.7276 400.5,96.5C 406.075,95.5476 411.741,95.2143 417.5,95.5 Z"/></g>
<g><path style="opacity:1" fill="#70c49f" d="M 132.5,100.5 C 134.39,100.297 135.89,100.963 137,102.5C 138.147,101.542 139.147,101.875 140,103.5C 139.9,109.202 140.066,114.869 140.5,120.5C 138.544,122.936 136.878,125.603 135.5,128.5C 136.711,129.72 136.711,130.887 135.5,132C 137.382,132.198 139.048,132.698 140.5,133.5C 135.526,135.241 130.86,137.575 126.5,140.5C 125.022,140.762 123.689,140.429 122.5,139.5C 124.606,137.731 126.272,135.565 127.5,133C 127.092,127.036 126.759,121.369 126.5,116C 128.363,113.873 128.696,111.706 127.5,109.5C 129.733,106.787 131.4,103.787 132.5,100.5 Z"/></g>
<g><path style="opacity:1" fill="#f6f4f5" d="M 328.5,99.5 C 333.335,101.414 337.669,104.081 341.5,107.5C 344.792,110.49 348.126,113.49 351.5,116.5C 355.659,120.309 358.992,124.643 361.5,129.5C 362.825,133.99 364.991,137.99 368,141.5C 369.333,145.5 370.667,149.5 372,153.5C 374.076,154.757 375.91,154.424 377.5,152.5C 376.361,156.134 373.861,158.134 370,158.5C 369.026,156.122 368.359,156.456 368,159.5C 367.451,157.24 366.284,155.574 364.5,154.5C 364.068,153.29 363.401,152.29 362.5,151.5C 361.668,144.041 358.668,137.708 353.5,132.5C 345.34,120.084 334.673,110.417 321.5,103.5C 320.5,103.167 319.833,102.5 319.5,101.5C 319.735,100.903 320.235,100.57 321,100.5C 323.996,103.288 326.496,102.954 328.5,99.5 Z"/></g>
<g><path style="opacity:1" fill="#87ca8c" d="M 354.5,32.5 C 361.189,38.1795 364.855,45.5128 365.5,54.5C 365.776,72.8387 366.776,90.8387 368.5,108.5C 367.236,112.264 365.736,115.93 364,119.5C 359.526,118.235 359.359,118.901 363.5,121.5C 360.56,123.645 359.893,126.311 361.5,129.5C 358.992,124.643 355.659,120.309 351.5,116.5C 350.611,114.264 349.278,112.264 347.5,110.5C 349.929,109.708 352.095,109.708 354,110.5C 354.84,107.536 355.84,107.203 357,109.5C 358.83,107.842 360.164,105.842 361,103.5C 364.025,104.791 364.359,104.124 362,101.5C 362.237,86.6858 361.904,72.0192 361,57.5C 357.51,49.8893 355.343,41.556 354.5,32.5 Z"/></g>
<g><path style="opacity:1" fill="#43b9b9" d="M 263.5,95.5 C 261.312,98.4091 258.312,99.9091 254.5,100C 255.167,100.667 255.833,101.333 256.5,102C 262.738,100.864 269.071,100.197 275.5,100C 272.385,100.552 270.052,102.219 268.5,105C 269.552,106.716 268.886,107.716 266.5,108C 267.167,108.333 267.833,108.667 268.5,109C 267.167,109.667 265.833,110.333 264.5,111C 265.022,111.561 265.355,112.228 265.5,113C 264.453,114.63 263.453,116.296 262.5,118C 264.301,118.317 264.634,118.984 263.5,120C 267.882,124.301 267.049,127.134 261,128.5C 260.35,132.236 258.183,134.403 254.5,135C 255.747,136.458 255.747,137.958 254.5,139.5C 252.539,140.578 250.872,141.911 249.5,143.5C 249.61,140.941 248.944,138.608 247.5,136.5C 246.749,137.376 246.249,138.376 246,139.5C 245.691,138.234 245.191,137.067 244.5,136C 244.985,133.32 245.318,130.653 245.5,128C 244.833,127.667 244.167,127.333 243.5,127C 247.607,123.632 246.94,121.299 241.5,120C 244.184,117.501 245.851,114.834 246.5,112C 247.833,111.667 249.167,111.333 250.5,111C 250.043,110.586 249.709,110.086 249.5,109.5C 251.972,108.104 254.638,107.27 257.5,107C 256.619,105.529 255.286,104.696 253.5,104.5C 250.784,104.961 248.118,105.627 245.5,106.5C 244.833,106.167 244.167,105.833 243.5,105.5C 245.006,103.599 246.673,101.932 248.5,100.5C 253.045,97.7728 258.045,96.1062 263.5,95.5 Z"/></g>
<g><path style="opacity:1" fill="#67c0a5" d="M 307.5,97.5 C 310.89,100.036 313.557,103.202 315.5,107C 313.803,112.076 312.47,117.243 311.5,122.5C 313.199,122.34 314.866,122.506 316.5,123C 314.984,124.897 314.317,127.064 314.5,129.5C 312.508,129.328 310.842,129.995 309.5,131.5C 308.252,130.96 307.085,130.293 306,129.5C 303.925,131.648 301.592,131.982 299,130.5C 297.53,131.267 296.03,131.933 294.5,132.5C 293.733,131.828 293.066,130.995 292.5,130C 295.448,128.825 298.448,126.991 301.5,124.5C 299.942,122.539 298.276,120.706 296.5,119C 298.541,116.211 300.208,113.211 301.5,110C 300.376,109.751 299.376,109.251 298.5,108.5C 301.086,105.107 304.419,102.94 308.5,102C 304.655,99.1557 300.489,97.989 296,98.5C 293.821,97.8839 291.988,96.7172 290.5,95C 282.421,94.2004 274.421,94.3671 266.5,95.5C 265.5,95.5 264.5,95.5 263.5,95.5C 264.263,94.7321 265.263,94.2321 266.5,94C 275.833,93.3333 285.167,93.3333 294.5,94C 298.957,94.8555 303.29,96.0222 307.5,97.5 Z"/></g>
<g><path style="opacity:1" fill="#5bbdab" d="M 117.5,148.5 C 113.363,155.432 110.363,162.765 108.5,170.5C 107.865,167.507 107.699,164.507 108,161.5C 111.813,155.057 113.813,148.057 114,140.5C 117.427,138.167 116.927,137 112.5,137C 113.167,136.667 113.833,136.333 114.5,136C 109.687,131.959 109.354,127.625 113.5,123C 110.174,119.98 110.174,117.146 113.5,114.5C 112.585,113.672 111.919,112.672 111.5,111.5C 112.046,109.865 112.38,108.199 112.5,106.5C 114.961,105.026 117.294,105.193 119.5,107C 119.036,109.405 118.869,111.905 119,114.5C 118.535,115.931 117.701,117.097 116.5,118C 117.74,120.912 119.406,123.579 121.5,126C 119.418,132.625 117.418,139.625 115.5,147C 115.836,148.03 116.503,148.53 117.5,148.5 Z"/></g>
<g><path style="opacity:1" fill="#a8d27b" d="M 171.5,94.5 C 174.662,95.1111 177.829,95.7777 181,96.5C 182.03,96.8361 182.53,97.5028 182.5,98.5C 175.536,97.428 175.036,98.7613 181,102.5C 182.675,104.591 183.175,106.758 182.5,109C 186.485,111.813 188.485,115.646 188.5,120.5C 184.554,121.78 181.887,124.446 180.5,128.5C 183.514,134.446 182.514,135.113 177.5,130.5C 173.709,131.972 174.042,133.139 178.5,134C 176.114,134.284 175.448,135.284 176.5,137C 178.167,137.333 179.833,137.667 181.5,138C 180.748,138.671 180.414,139.504 180.5,140.5C 178.147,139.66 176.147,138.326 174.5,136.5C 169.826,134.313 165.493,131.479 161.5,128C 162.108,125.498 163.441,123.498 165.5,122C 165.265,121.127 164.931,120.293 164.5,119.5C 166.234,118.326 167.234,116.66 167.5,114.5C 168.194,109.121 168.527,103.788 168.5,98.5C 167.5,98.5 166.5,98.5 165.5,98.5C 165.759,94.9319 167.759,93.5985 171.5,94.5 Z"/></g>
<g><path style="opacity:1" fill="#b7d472" d="M 434.5,98.5 C 438.397,99.9099 442.397,100.91 446.5,101.5C 448.261,102.313 449.928,103.313 451.5,104.5C 449.5,104.5 447.5,104.5 445.5,104.5C 445.997,106.597 446.33,108.43 446.5,110C 445.328,110.419 444.328,111.085 443.5,112C 447.151,115.969 449.485,120.636 450.5,126C 448.274,130.278 444.941,131.444 440.5,129.5C 440.33,130.822 440.663,131.989 441.5,133C 435.492,133.996 434.825,135.496 439.5,137.5C 438.975,138.192 438.308,138.692 437.5,139C 439.751,139.748 441.084,141.248 441.5,143.5C 436.199,140.631 430.865,137.964 425.5,135.5C 423.11,133.98 420.443,132.98 417.5,132.5C 417.5,131.5 417.5,130.5 417.5,129.5C 413.551,129.307 413.551,128.807 417.5,128C 417.167,127.667 416.833,127.333 416.5,127C 420.673,122.61 425.673,121.276 431.5,123C 431.167,120.667 430.833,118.333 430.5,116C 431.428,115.612 432.095,114.945 432.5,114C 431.965,112.463 431.632,110.963 431.5,109.5C 431.968,107.866 432.968,106.7 434.5,106C 433.663,104.989 433.33,103.822 433.5,102.5C 431.266,102.62 429.099,102.287 427,101.5C 423.962,99.8779 423.962,98.5446 427,97.5C 429.434,98.3223 431.934,98.6556 434.5,98.5 Z"/></g>
<g><path style="opacity:1" fill="#59bdad" d="M 294.5,132.5 C 295.5,133.833 296.5,135.167 297.5,136.5C 289.052,133.373 280.385,132.706 271.5,134.5C 272.209,133.596 273.209,133.263 274.5,133.5C 274.657,132.127 274.49,130.793 274,129.5C 273.667,129.833 273.333,130.167 273,130.5C 270.985,128.527 271.152,126.86 273.5,125.5C 272.044,125.678 270.711,124.844 269.5,123C 272.441,122.487 275.441,121.82 278.5,121C 277.62,119.644 277.286,118.144 277.5,116.5C 276.448,116.649 275.448,116.483 274.5,116C 276.307,114.764 278.307,114.43 280.5,115C 282.167,113.667 283.833,112.333 285.5,111C 283.431,110.676 283.098,109.842 284.5,108.5C 283.313,107.481 282.313,106.314 281.5,105C 282.167,104.667 282.833,104.333 283.5,104C 281.915,103.915 280.582,103.749 279.5,103.5C 281.249,101.484 283.249,99.8175 285.5,98.5C 278.524,97.6689 271.524,97.1689 264.5,97C 265.416,96.7216 266.082,96.2216 266.5,95.5C 274.421,94.3671 282.421,94.2004 290.5,95C 291.988,96.7172 293.821,97.8839 296,98.5C 300.489,97.989 304.655,99.1557 308.5,102C 304.419,102.94 301.086,105.107 298.5,108.5C 299.376,109.251 300.376,109.751 301.5,110C 300.208,113.211 298.541,116.211 296.5,119C 298.276,120.706 299.942,122.539 301.5,124.5C 298.448,126.991 295.448,128.825 292.5,130C 293.066,130.995 293.733,131.828 294.5,132.5 Z"/></g>
<g><path style="opacity:1" fill="#9fce80" d="M 388.5,99.5 C 390.832,101.759 393.665,103.426 397,104.5C 397.739,103.426 398.739,102.759 400,102.5C 404.521,103.803 408.854,105.469 413,107.5C 414,106.5 415,105.5 416,104.5C 417.174,108.046 417.84,111.713 418,115.5C 418.5,116 419,116.5 419.5,117C 418.747,118.487 417.914,118.654 417,117.5C 413.769,123.703 408.602,126.703 401.5,126.5C 401.67,127.822 401.337,128.989 400.5,130C 398.423,130.192 396.423,130.692 394.5,131.5C 394.709,132.086 395.043,132.586 395.5,133C 402.835,133.278 410.168,133.111 417.5,132.5C 420.443,132.98 423.11,133.98 425.5,135.5C 424.167,135.5 422.833,135.5 421.5,135.5C 419.321,134.074 416.821,133.408 414,133.5C 408.868,133.725 404.035,134.725 399.5,136.5C 395.993,136.92 392.659,137.92 389.5,139.5C 389.389,138.883 389.056,138.383 388.5,138C 386.687,138.046 385.021,137.88 383.5,137.5C 385.991,136.459 385.991,135.626 383.5,135C 385.891,133.691 385.891,132.691 383.5,132C 384.167,131.333 384.833,130.667 385.5,130C 389.942,129.863 393.442,128.03 396,124.5C 396.667,123.167 396.667,121.833 396,120.5C 394.677,117.837 392.344,115.504 389,113.5C 388.342,111.892 388.842,110.725 390.5,110C 387.876,109.424 387.209,108.09 388.5,106C 385.514,106.375 382.514,105.875 379.5,104.5C 382.232,102.395 385.232,100.728 388.5,99.5 Z"/></g>
<g><path style="opacity:1" fill="#71c39e" d="M 307.5,97.5 C 311.699,98.2677 315.699,99.601 319.5,101.5C 319.833,102.5 320.5,103.167 321.5,103.5C 323.206,105.073 324.373,107.073 325,109.5C 329.043,113.207 332.709,117.207 336,121.5C 336.667,122.167 336.667,122.833 336,123.5C 334.612,122.446 333.112,122.28 331.5,123C 333.257,125.846 335.257,128.512 337.5,131C 334.582,134.795 335.582,137.128 340.5,138C 338.311,138.677 337.978,139.844 339.5,141.5C 337.758,143.973 335.925,143.973 334,141.5C 333.993,144.686 332.826,147.686 330.5,150.5C 331.833,153.167 331.167,153.833 328.5,152.5C 328.167,153.167 327.833,153.833 327.5,154.5C 325.902,153.515 324.235,153.349 322.5,154C 323.696,155.364 324.696,156.864 325.5,158.5C 325.457,159.416 325.124,160.083 324.5,160.5C 321.62,155.278 317.953,150.612 313.5,146.5C 309.997,140.916 304.997,137.582 298.5,136.5C 298.167,136.5 297.833,136.5 297.5,136.5C 296.5,135.167 295.5,133.833 294.5,132.5C 296.03,131.933 297.53,131.267 299,130.5C 301.592,131.982 303.925,131.648 306,129.5C 307.085,130.293 308.252,130.96 309.5,131.5C 310.842,129.995 312.508,129.328 314.5,129.5C 314.317,127.064 314.984,124.897 316.5,123C 314.866,122.506 313.199,122.34 311.5,122.5C 312.47,117.243 313.803,112.076 315.5,107C 313.557,103.202 310.89,100.036 307.5,97.5 Z"/></g>
<g><path style="opacity:1" fill="#c3d86c" d="M 451.5,104.5 C 456.727,106.746 461.394,109.746 465.5,113.5C 461.613,112.98 458.28,111.313 455.5,108.5C 455.167,109 454.833,109.5 454.5,110C 457.095,113.396 460.261,116.229 464,118.5C 464.667,120.167 464.667,121.833 464,123.5C 463.111,122.112 462.611,122.278 462.5,124C 462.862,125.225 463.362,126.391 464,127.5C 465.666,126.66 465.833,127.16 464.5,129C 465.357,129.689 466.023,130.522 466.5,131.5C 465.05,132.85 464.383,134.516 464.5,136.5C 466.167,136.5 467.833,136.5 469.5,136.5C 469.496,138.842 468.663,140.842 467,142.5C 464.4,141.693 462.066,142.36 460,144.5C 456.713,142.986 454.047,140.653 452,137.5C 448.091,138.292 447.591,139.959 450.5,142.5C 448.914,144.173 448.247,146.173 448.5,148.5C 449.5,148.5 450.5,148.5 451.5,148.5C 451.942,152.037 452.942,155.37 454.5,158.5C 452.633,157.24 451.3,155.573 450.5,153.5C 449.25,151.068 447.75,148.734 446,146.5C 444.871,144.859 443.371,143.859 441.5,143.5C 441.084,141.248 439.751,139.748 437.5,139C 438.308,138.692 438.975,138.192 439.5,137.5C 434.825,135.496 435.492,133.996 441.5,133C 440.663,131.989 440.33,130.822 440.5,129.5C 444.941,131.444 448.274,130.278 450.5,126C 449.485,120.636 447.151,115.969 443.5,112C 444.328,111.085 445.328,110.419 446.5,110C 446.33,108.43 445.997,106.597 445.5,104.5C 447.5,104.5 449.5,104.5 451.5,104.5 Z"/></g>
<g><path style="opacity:1" fill="#3db7bf" d="M 248.5,100.5 C 246.673,101.932 245.006,103.599 243.5,105.5C 244.167,105.833 244.833,106.167 245.5,106.5C 248.118,105.627 250.784,104.961 253.5,104.5C 255.286,104.696 256.619,105.529 257.5,107C 254.638,107.27 251.972,108.104 249.5,109.5C 249.709,110.086 250.043,110.586 250.5,111C 249.167,111.333 247.833,111.667 246.5,112C 245.851,114.834 244.184,117.501 241.5,120C 246.94,121.299 247.607,123.632 243.5,127C 244.167,127.333 244.833,127.667 245.5,128C 245.318,130.653 244.985,133.32 244.5,136C 245.191,137.067 245.691,138.234 246,139.5C 246.249,138.376 246.749,137.376 247.5,136.5C 248.944,138.608 249.61,140.941 249.5,143.5C 246.195,145.498 244.529,148.498 244.5,152.5C 241.477,158.558 238.977,164.891 237,171.5C 236.667,191.5 236.333,211.5 236,231.5C 235,236.5 234,241.5 233,246.5C 231.533,249.787 229.366,252.454 226.5,254.5C 227.167,252.5 227.833,250.5 228.5,248.5C 229.117,248.389 229.617,248.056 230,247.5C 230.839,243.389 231.839,239.389 233,235.5C 232.929,215.571 232.929,195.571 233,175.5C 232.691,174.234 232.191,173.067 231.5,172C 232.798,165.277 230.798,159.111 225.5,153.5C 226.609,151.786 225.942,151.119 223.5,151.5C 223.391,147.12 221.391,145.786 217.5,147.5C 219.172,144.316 220.505,141.316 221.5,138.5C 221.081,137.328 220.415,136.328 219.5,135.5C 220.991,134.756 222.491,134.09 224,133.5C 224.229,130.542 225.396,128.042 227.5,126C 226.869,123.645 226.869,121.478 227.5,119.5C 228.313,118.186 229.313,117.019 230.5,116C 228.633,115.289 227.133,115.789 226,117.5C 225.833,117.167 225.667,116.833 225.5,116.5C 226.524,115.148 227.524,113.815 228.5,112.5C 230.004,110.164 232.004,108.331 234.5,107C 238.165,105.503 241.498,103.503 244.5,101C 245.793,100.51 247.127,100.343 248.5,100.5 Z"/></g>
<g><path style="opacity:1" fill="#cbd865" d="M 198.5,106.5 C 205.821,110.318 212.154,115.318 217.5,121.5C 217.5,122.167 217.167,122.5 216.5,122.5C 214.782,124.223 213.449,126.223 212.5,128.5C 212.5,128.833 212.5,129.167 212.5,129.5C 210.413,130.585 209.08,132.251 208.5,134.5C 207.552,137.14 206.552,139.807 205.5,142.5C 203.31,143.975 201.977,145.975 201.5,148.5C 198.596,149.876 196.929,148.876 196.5,145.5C 199.112,139.406 201.445,133.239 203.5,127C 202.024,123.405 200.191,119.905 198,116.5C 197.9,113.097 197.066,109.93 195.5,107C 196.448,106.517 197.448,106.351 198.5,106.5 Z"/></g>
<g><path style="opacity:1" fill="#4ebbb4" d="M 112.5,102.5 C 111.646,104.035 111.646,105.368 112.5,106.5C 112.38,108.199 112.046,109.865 111.5,111.5C 111.919,112.672 112.585,113.672 113.5,114.5C 110.174,117.146 110.174,119.98 113.5,123C 109.354,127.625 109.687,131.959 114.5,136C 113.833,136.333 113.167,136.667 112.5,137C 116.927,137 117.427,138.167 114,140.5C 113.813,148.057 111.813,155.057 108,161.5C 107.699,164.507 107.865,167.507 108.5,170.5C 107.678,190.76 107.178,211.094 107,231.5C 105.872,236.552 104.538,241.552 103,246.5C 101.951,248.618 100.451,250.284 98.5,251.5C 99.6392,248.996 100.306,246.33 100.5,243.5C 103.109,238.235 104.609,232.569 105,226.5C 106.015,205.552 106.515,184.719 106.5,164C 105.327,161.74 103.994,159.574 102.5,157.5C 101.726,156.289 100.893,156.289 100,157.5C 97.1095,154.583 96.9428,151.583 99.5,148.5C 98.7261,147.289 97.8928,147.289 97,148.5C 95.9542,146.91 94.7875,145.41 93.5,144C 94.3483,140.744 95.015,137.411 95.5,134C 95.4753,132.124 94.8086,130.624 93.5,129.5C 93.9423,126.657 94.9423,123.991 96.5,121.5C 95.2839,120.904 93.9506,120.737 92.5,121C 91.6634,119.989 91.33,118.822 91.5,117.5C 97.2588,110.785 104.259,105.785 112.5,102.5 Z"/></g>
<g><path style="opacity:1" fill="#93cd86" d="M 397.5,96.5 C 398.5,96.5 399.5,96.5 400.5,96.5C 396.924,98.7276 392.924,99.7276 388.5,99.5C 385.232,100.728 382.232,102.395 379.5,104.5C 382.514,105.875 385.514,106.375 388.5,106C 387.209,108.09 387.876,109.424 390.5,110C 388.842,110.725 388.342,111.892 389,113.5C 392.344,115.504 394.677,117.837 396,120.5C 396.667,121.833 396.667,123.167 396,124.5C 393.442,128.03 389.942,129.863 385.5,130C 384.833,130.667 384.167,131.333 383.5,132C 385.891,132.691 385.891,133.691 383.5,135C 385.991,135.626 385.991,136.459 383.5,137.5C 385.021,137.88 386.687,138.046 388.5,138C 389.056,138.383 389.389,138.883 389.5,139.5C 386.087,142.72 382.421,145.72 378.5,148.5C 377.571,149.689 377.238,151.022 377.5,152.5C 375.91,154.424 374.076,154.757 372,153.5C 370.667,149.5 369.333,145.5 368,141.5C 364.991,137.99 362.825,133.99 361.5,129.5C 359.893,126.311 360.56,123.645 363.5,121.5C 359.359,118.901 359.526,118.235 364,119.5C 365.736,115.93 367.236,112.264 368.5,108.5C 372.675,107.712 376.009,105.712 378.5,102.5C 384.263,99.004 390.596,97.004 397.5,96.5 Z"/></g>
<g><path style="opacity:1" fill="#a8d19a" d="M 216.5,122.5 C 216.378,125.292 215.044,127.292 212.5,128.5C 213.449,126.223 214.782,124.223 216.5,122.5 Z"/></g>
<g><path style="opacity:1" fill="#65c0a5" d="M 140.5,93.5 C 140.389,94.1174 140.056,94.6174 139.5,95C 135.963,95.145 132.629,95.9784 129.5,97.5C 130.188,98.8549 131.188,99.8549 132.5,100.5C 131.4,103.787 129.733,106.787 127.5,109.5C 128.696,111.706 128.363,113.873 126.5,116C 126.759,121.369 127.092,127.036 127.5,133C 126.272,135.565 124.606,137.731 122.5,139.5C 123.689,140.429 125.022,140.762 126.5,140.5C 123.526,143.138 120.526,145.805 117.5,148.5C 116.503,148.53 115.836,148.03 115.5,147C 117.418,139.625 119.418,132.625 121.5,126C 119.406,123.579 117.74,120.912 116.5,118C 117.701,117.097 118.535,115.931 119,114.5C 118.869,111.905 119.036,109.405 119.5,107C 117.294,105.193 114.961,105.026 112.5,106.5C 111.646,105.368 111.646,104.035 112.5,102.5C 115.16,100.503 118.16,99.0033 121.5,98C 127.674,95.7742 134.007,94.2742 140.5,93.5 Z"/></g>
<g><path style="opacity:1" fill="#bed76d" d="M 190.5,101.5 C 193.704,102.383 196.371,104.05 198.5,106.5C 197.448,106.351 196.448,106.517 195.5,107C 197.066,109.93 197.9,113.097 198,116.5C 200.191,119.905 202.024,123.405 203.5,127C 201.445,133.239 199.112,139.406 196.5,145.5C 196.929,148.876 198.596,149.876 201.5,148.5C 201.59,151.152 200.924,153.485 199.5,155.5C 198.168,157.132 196.835,158.799 195.5,160.5C 193.855,158.075 192.689,155.408 192,152.5C 191.051,150.907 189.885,149.574 188.5,148.5C 187.741,146.564 186.741,144.731 185.5,143C 185.988,141.416 186.988,140.249 188.5,139.5C 187.833,138.167 187.167,136.833 186.5,135.5C 186.846,134.304 187.346,134.304 188,135.5C 188.359,132.456 189.026,132.122 190,134.5C 190.333,133.5 190.667,132.5 191,131.5C 191.333,131.833 191.667,132.167 192,132.5C 191.805,125.942 191.638,119.775 191.5,114C 192.167,113 192.833,112 193.5,111C 191.256,108.151 188.922,105.317 186.5,102.5C 187.689,101.571 189.022,101.238 190.5,101.5 Z"/></g>
<g><path style="opacity:1" fill="#7dc599" d="M 321.5,103.5 C 334.673,110.417 345.34,120.084 353.5,132.5C 350.492,129.998 347.326,127.665 344,125.5C 343.455,128.077 344.289,130.077 346.5,131.5C 345.986,133.512 345.82,135.512 346,137.5C 349.789,138.935 351.455,141.602 351,145.5C 350.667,144.833 350.333,144.167 350,143.5C 348.18,146.404 348.346,149.237 350.5,152C 349.903,153.889 349.569,155.722 349.5,157.5C 350.325,158.386 351.325,158.719 352.5,158.5C 352.5,159.833 352.5,161.167 352.5,162.5C 349.282,162.651 348.949,163.484 351.5,165C 351.53,168.966 351.364,173.133 351,177.5C 350.5,178 350,178.5 349.5,179C 354.009,178.659 355.342,180.826 353.5,185.5C 354.835,189.339 356.501,193.006 358.5,196.5C 357.181,202.248 355.681,207.915 354,213.5C 351.693,215.454 349.693,215.454 348,213.5C 347.055,213.905 346.388,214.572 346,215.5C 341.64,213.329 339.807,214.995 340.5,220.5C 344.96,220.522 346.293,222.522 344.5,226.5C 339.277,220.397 335.444,213.397 333,205.5C 330.802,190.399 327.969,175.399 324.5,160.5C 325.124,160.083 325.457,159.416 325.5,158.5C 324.696,156.864 323.696,155.364 322.5,154C 324.235,153.349 325.902,153.515 327.5,154.5C 327.833,153.833 328.167,153.167 328.5,152.5C 331.167,153.833 331.833,153.167 330.5,150.5C 332.826,147.686 333.993,144.686 334,141.5C 335.925,143.973 337.758,143.973 339.5,141.5C 337.978,139.844 338.311,138.677 340.5,138C 335.582,137.128 334.582,134.795 337.5,131C 335.257,128.512 333.257,125.846 331.5,123C 333.112,122.28 334.612,122.446 336,123.5C 336.667,122.833 336.667,122.167 336,121.5C 332.709,117.207 329.043,113.207 325,109.5C 324.373,107.073 323.206,105.073 321.5,103.5 Z"/></g>
<g><path style="opacity:1" fill="#3fbaba" d="M 93.5,129.5 C 94.8086,130.624 95.4753,132.124 95.5,134C 95.015,137.411 94.3483,140.744 93.5,144C 94.7875,145.41 95.9542,146.91 97,148.5C 97.8928,147.289 98.7261,147.289 99.5,148.5C 96.9428,151.583 97.1095,154.583 100,157.5C 100.893,156.289 101.726,156.289 102.5,157.5C 103.994,159.574 105.327,161.74 106.5,164C 106.515,184.719 106.015,205.552 105,226.5C 104.609,232.569 103.109,238.235 100.5,243.5C 99.7166,239.686 99.3832,236.019 99.5,232.5C 101.856,231.346 102.023,230.013 100,228.5C 99.6667,229.167 99.3333,229.833 99,230.5C 97.9164,229.335 97.0831,228.002 96.5,226.5C 97.8857,223.025 99.219,219.525 100.5,216C 99.9706,214.441 99.304,212.941 98.5,211.5C 99.5,210.833 100.5,210.167 101.5,209.5C 98.9082,206.686 98.9082,203.853 101.5,201C 101.156,195.134 100.989,189.301 101,183.5C 100.259,182.359 99.4255,182.359 98.5,183.5C 97.7267,181.187 97.0601,178.854 96.5,176.5C 96.5565,172.805 96.5565,169.472 96.5,166.5C 101.995,163.391 101.661,161.558 95.5,161C 97.0074,160.163 97.5074,158.996 97,157.5C 95.4173,155.945 93.584,154.778 91.5,154C 92.2797,152.927 92.113,151.76 91,150.5C 89.8438,151.993 89.0104,151.826 88.5,150C 89.0639,147.101 89.0639,144.101 88.5,141C 88.6004,138.698 89.267,136.698 90.5,135C 89.5939,133.301 89.2606,131.467 89.5,129.5C 90.8333,129.5 92.1667,129.5 93.5,129.5 Z"/></g>
<g><path style="opacity:1" fill="#b4d673" d="M 182.5,98.5 C 185.942,97.8283 188.609,98.8283 190.5,101.5C 189.022,101.238 187.689,101.571 186.5,102.5C 188.922,105.317 191.256,108.151 193.5,111C 192.833,112 192.167,113 191.5,114C 191.638,119.775 191.805,125.942 192,132.5C 191.667,132.167 191.333,131.833 191,131.5C 190.667,132.5 190.333,133.5 190,134.5C 189.026,132.122 188.359,132.456 188,135.5C 187.346,134.304 186.846,134.304 186.5,135.5C 187.167,136.833 187.833,138.167 188.5,139.5C 186.988,140.249 185.988,141.416 185.5,143C 186.741,144.731 187.741,146.564 188.5,148.5C 185.5,146.167 182.833,143.5 180.5,140.5C 180.414,139.504 180.748,138.671 181.5,138C 179.833,137.667 178.167,137.333 176.5,137C 175.448,135.284 176.114,134.284 178.5,134C 174.042,133.139 173.709,131.972 177.5,130.5C 182.514,135.113 183.514,134.446 180.5,128.5C 181.887,124.446 184.554,121.78 188.5,120.5C 188.485,115.646 186.485,111.813 182.5,109C 183.175,106.758 182.675,104.591 181,102.5C 175.036,98.7613 175.536,97.428 182.5,98.5 Z"/></g>
<g><path style="opacity:1" fill="#a4ce96" d="M 212.5,129.5 C 211.92,131.749 210.587,133.415 208.5,134.5C 209.08,132.251 210.413,130.585 212.5,129.5 Z"/></g>
<g><path style="opacity:1" fill="#2ab4c5" d="M 228.5,112.5 C 227.524,113.815 226.524,115.148 225.5,116.5C 225.667,116.833 225.833,117.167 226,117.5C 227.133,115.789 228.633,115.289 230.5,116C 229.313,117.019 228.313,118.186 227.5,119.5C 226.869,121.478 226.869,123.645 227.5,126C 225.396,128.042 224.229,130.542 224,133.5C 222.491,134.09 220.991,134.756 219.5,135.5C 220.415,136.328 221.081,137.328 221.5,138.5C 220.505,141.316 219.172,144.316 217.5,147.5C 221.391,145.786 223.391,147.12 223.5,151.5C 225.942,151.119 226.609,151.786 225.5,153.5C 230.798,159.111 232.798,165.277 231.5,172C 232.191,173.067 232.691,174.234 233,175.5C 232.929,195.571 232.929,215.571 233,235.5C 231.839,239.389 230.839,243.389 230,247.5C 229.617,248.056 229.117,248.389 228.5,248.5C 228.095,244.538 226.595,243.871 224,246.5C 222.584,244.58 223.084,242.913 225.5,241.5C 227.279,244.276 228.279,243.943 228.5,240.5C 227.31,236.061 225.977,231.728 224.5,227.5C 222.833,227.5 221.167,227.5 219.5,227.5C 220.068,224.412 220.068,221.412 219.5,218.5C 220.189,216.647 221.522,215.481 223.5,215C 221.117,214.935 220.45,214.102 221.5,212.5C 220.184,211.193 219.184,209.693 218.5,208C 219.217,205.997 219.55,203.831 219.5,201.5C 217.18,200.023 215.847,198.19 215.5,196C 216.167,195.667 216.833,195.333 217.5,195C 216.458,192.443 215.125,190.11 213.5,188C 214.517,186.951 214.684,185.784 214,184.5C 212.667,184.5 211.333,184.5 210,184.5C 208.748,181.077 208.915,177.577 210.5,174C 208.2,172.887 207.867,171.387 209.5,169.5C 209.471,167.971 208.804,166.804 207.5,166C 208.416,165.626 209.25,165.126 210,164.5C 211.366,160.884 211.2,157.55 209.5,154.5C 209.98,152.051 210.98,149.885 212.5,148C 210.763,146.432 209.763,144.432 209.5,142C 211.51,139.452 212.343,136.619 212,133.5C 211.333,134.167 210.667,134.833 210,135.5C 208.992,138.304 207.492,140.637 205.5,142.5C 206.552,139.807 207.552,137.14 208.5,134.5C 210.587,133.415 211.92,131.749 212.5,129.5C 212.5,129.167 212.5,128.833 212.5,128.5C 215.044,127.292 216.378,125.292 216.5,122.5C 217.167,122.5 217.5,122.167 217.5,121.5C 220.895,118.098 224.562,115.098 228.5,112.5 Z"/></g>
<g><path style="opacity:1" fill="#e4eccf" d="M 421.5,135.5 C 414.132,135.317 406.799,135.65 399.5,136.5C 404.035,134.725 408.868,133.725 414,133.5C 416.821,133.408 419.321,134.074 421.5,135.5 Z"/></g>
<g><path style="opacity:1" fill="#fefefd" d="M 421.5,135.5 C 422.833,135.5 424.167,135.5 425.5,135.5C 430.865,137.964 436.199,140.631 441.5,143.5C 444.041,147.252 447.041,150.585 450.5,153.5C 451.3,155.573 452.633,157.24 454.5,158.5C 454.5,159.167 454.5,159.833 454.5,160.5C 455.35,164.553 456.516,168.553 458,172.5C 458.626,178.195 458.459,183.862 457.5,189.5C 457.5,190.833 457.5,192.167 457.5,193.5C 454.803,196.226 453.137,199.559 452.5,203.5C 449.195,207.141 445.862,210.808 442.5,214.5C 438.034,216.566 433.701,218.9 429.5,221.5C 414.501,226.808 400.501,225.142 387.5,216.5C 381.322,211.669 376.322,206.002 372.5,199.5C 372.872,196.978 372.039,194.978 370,193.5C 369.378,184.61 368.211,175.943 366.5,167.5C 366.5,167.167 366.5,166.833 366.5,166.5C 366.81,162.3 366.143,158.3 364.5,154.5C 366.284,155.574 367.451,157.24 368,159.5C 368.359,156.456 369.026,156.122 370,158.5C 373.861,158.134 376.361,156.134 377.5,152.5C 377.238,151.022 377.571,149.689 378.5,148.5C 382.421,145.72 386.087,142.72 389.5,139.5C 392.659,137.92 395.993,136.92 399.5,136.5C 406.799,135.65 414.132,135.317 421.5,135.5 Z"/></g>
<g><path style="opacity:1" fill="#99c6af" d="M 298.5,136.5 C 304.997,137.582 309.997,140.916 313.5,146.5C 308.32,143.412 303.32,140.078 298.5,136.5 Z"/></g>
<g><path style="opacity:1" fill="#e6e893" d="M 484.5,134.5 C 488.315,137.127 490.315,140.794 490.5,145.5C 487.753,142.277 485.753,138.611 484.5,134.5 Z"/></g>
<g><path style="opacity:1" fill="#39b7be" d="M 91.5,117.5 C 91.33,118.822 91.6634,119.989 92.5,121C 93.9506,120.737 95.2839,120.904 96.5,121.5C 94.9423,123.991 93.9423,126.657 93.5,129.5C 92.1667,129.5 90.8333,129.5 89.5,129.5C 89.2606,131.467 89.5939,133.301 90.5,135C 89.267,136.698 88.6004,138.698 88.5,141C 89.0639,144.101 89.0639,147.101 88.5,150C 89.0104,151.826 89.8438,151.993 91,150.5C 92.113,151.76 92.2797,152.927 91.5,154C 93.584,154.778 95.4173,155.945 97,157.5C 97.5074,158.996 97.0074,160.163 95.5,161C 101.661,161.558 101.995,163.391 96.5,166.5C 96.5565,169.472 96.5565,172.805 96.5,176.5C 97.0601,178.854 97.7267,181.187 98.5,183.5C 99.4255,182.359 100.259,182.359 101,183.5C 100.989,189.301 101.156,195.134 101.5,201C 98.9082,203.853 98.9082,206.686 101.5,209.5C 100.5,210.167 99.5,210.833 98.5,211.5C 99.304,212.941 99.9706,214.441 100.5,216C 99.219,219.525 97.8857,223.025 96.5,226.5C 97.0831,228.002 97.9164,229.335 99,230.5C 99.3333,229.833 99.6667,229.167 100,228.5C 102.023,230.013 101.856,231.346 99.5,232.5C 99.3832,236.019 99.7166,239.686 100.5,243.5C 100.306,246.33 99.6392,248.996 98.5,251.5C 97.8333,252.833 96.8333,253.833 95.5,254.5C 94.4265,253.749 94.2599,252.749 95,251.5C 97.0388,249.743 98.5388,247.576 99.5,245C 99.1016,242.095 98.6016,238.928 98,235.5C 96.9032,233.947 95.5699,232.614 94,231.5C 91.2843,224.971 88.951,218.638 87,212.5C 85.3333,212.833 83.6667,213.167 82,213.5C 81.9071,209.752 81.7404,206.086 81.5,202.5C 82.3052,200.085 83.3052,197.751 84.5,195.5C 83.3632,193.393 82.3632,191.227 81.5,189C 83.4141,187.531 84.0808,185.865 83.5,184C 81.3956,183.511 81.0622,182.345 82.5,180.5C 82.0609,178.896 81.3943,177.396 80.5,176C 80.9444,174.238 81.4444,174.405 82,176.5C 82.1667,175.833 82.3333,175.167 82.5,174.5C 81.7515,172.964 80.7515,171.631 79.5,170.5C 80.2888,168.512 81.4555,168.179 83,169.5C 84.3681,168.007 84.5348,166.507 83.5,165C 84.1667,164.667 84.8333,164.333 85.5,164C 81.1961,160.346 80.5294,156.179 83.5,151.5C 80.6787,146.547 81.012,141.88 84.5,137.5C 83.2402,136.618 82.0736,135.618 81,134.5C 80.1841,135.823 79.0174,136.489 77.5,136.5C 80.63,129.036 85.2967,122.703 91.5,117.5 Z"/></g>
<g><path style="opacity:1" fill="#a7d6a7" d="M 353.5,132.5 C 358.668,137.708 361.668,144.041 362.5,151.5C 358.463,145.757 355.463,139.424 353.5,132.5 Z"/></g>
<g><path style="opacity:1" fill="#e4eabc" d="M 441.5,143.5 C 443.371,143.859 444.871,144.859 446,146.5C 447.75,148.734 449.25,151.068 450.5,153.5C 447.041,150.585 444.041,147.252 441.5,143.5 Z"/></g>
<g><path style="opacity:1" fill="#b7ddb7" d="M 362.5,151.5 C 363.401,152.29 364.068,153.29 364.5,154.5C 366.143,158.3 366.81,162.3 366.5,166.5C 365.031,161.629 363.697,156.629 362.5,151.5 Z"/></g>
<g><path style="opacity:1" fill="#d1dc60" d="M 465.5,113.5 C 473.619,118.949 479.952,125.949 484.5,134.5C 481.838,132.505 479.505,130.171 477.5,127.5C 476.28,127.887 475.613,128.72 475.5,130C 479.228,135.505 482.394,141.338 485,147.5C 485.759,152.707 485.592,157.874 484.5,163C 485.628,164.468 486.294,166.135 486.5,168C 486.153,170.987 485.819,173.987 485.5,177C 485.862,178.225 486.362,179.391 487,180.5C 487.667,181.833 488.333,181.833 489,180.5C 490.635,186.157 490.801,191.824 489.5,197.5C 489.5,199.167 489.5,200.833 489.5,202.5C 486.932,207.083 484.932,212.083 483.5,217.5C 480.538,217.117 479.538,218.117 480.5,220.5C 478.358,222.618 476.692,224.952 475.5,227.5C 474.943,223.366 475.943,219.699 478.5,216.5C 477.603,216.331 476.603,215.998 475.5,215.5C 477.831,212.234 477.164,209.4 473.5,207C 471.82,206.966 470.32,206.799 469,206.5C 470.126,204.05 469.459,202.05 467,200.5C 466.667,200.833 466.333,201.167 466,201.5C 466.046,199.687 465.88,198.021 465.5,196.5C 464.833,196.833 464.167,197.167 463.5,197.5C 462.757,196.092 461.923,194.759 461,193.5C 459.328,198.611 458.162,198.611 457.5,193.5C 457.5,192.167 457.5,190.833 457.5,189.5C 458.222,189.082 458.722,188.416 459,187.5C 460.749,177.796 459.249,168.796 454.5,160.5C 454.5,159.833 454.5,159.167 454.5,158.5C 452.942,155.37 451.942,152.037 451.5,148.5C 450.5,148.5 449.5,148.5 448.5,148.5C 448.247,146.173 448.914,144.173 450.5,142.5C 447.591,139.959 448.091,138.292 452,137.5C 454.047,140.653 456.713,142.986 460,144.5C 462.066,142.36 464.4,141.693 467,142.5C 468.663,140.842 469.496,138.842 469.5,136.5C 467.833,136.5 466.167,136.5 464.5,136.5C 464.383,134.516 465.05,132.85 466.5,131.5C 466.023,130.522 465.357,129.689 464.5,129C 465.833,127.16 465.666,126.66 464,127.5C 463.362,126.391 462.862,125.225 462.5,124C 462.611,122.278 463.111,122.112 464,123.5C 464.667,121.833 464.667,120.167 464,118.5C 460.261,116.229 457.095,113.396 454.5,110C 454.833,109.5 455.167,109 455.5,108.5C 458.28,111.313 461.613,112.98 465.5,113.5 Z"/></g>
<g><path style="opacity:1" fill="#dddf57" d="M 484.5,134.5 C 485.753,138.611 487.753,142.277 490.5,145.5C 492.008,147.181 493.008,149.181 493.5,151.5C 493.87,155.233 494.537,158.899 495.5,162.5C 493.102,159.345 491.936,155.679 492,151.5C 491.077,149.076 489.577,147.076 487.5,145.5C 487.167,146.167 486.833,146.833 486.5,147.5C 487.493,151.791 488.16,156.124 488.5,160.5C 489.5,160.5 490.5,160.5 491.5,160.5C 492.146,173.212 491.48,185.545 489.5,197.5C 490.801,191.824 490.635,186.157 489,180.5C 488.333,181.833 487.667,181.833 487,180.5C 486.362,179.391 485.862,178.225 485.5,177C 485.819,173.987 486.153,170.987 486.5,168C 486.294,166.135 485.628,164.468 484.5,163C 485.592,157.874 485.759,152.707 485,147.5C 482.394,141.338 479.228,135.505 475.5,130C 475.613,128.72 476.28,127.887 477.5,127.5C 479.505,130.171 481.838,132.505 484.5,134.5 Z"/></g>
<g><path style="opacity:1" fill="#e7ecc9" d="M 188.5,148.5 C 189.885,149.574 191.051,150.907 192,152.5C 192.689,155.408 193.855,158.075 195.5,160.5C 196.835,158.799 198.168,157.132 199.5,155.5C 199.029,157.579 198.363,159.579 197.5,161.5C 196.833,161.5 196.5,161.833 196.5,162.5C 195.12,163.706 193.953,163.373 193,161.5C 191.485,157.144 189.985,152.81 188.5,148.5 Z"/></g>
<g><path style="opacity:1" fill="#e0e246" d="M 495.5,162.5 C 495.5,163.167 495.5,163.833 495.5,164.5C 496.37,173.154 496.536,181.82 496,190.5C 492.894,195.81 490.561,201.477 489,207.5C 488.36,205.735 488.527,204.068 489.5,202.5C 489.5,200.833 489.5,199.167 489.5,197.5C 491.48,185.545 492.146,173.212 491.5,160.5C 490.5,160.5 489.5,160.5 488.5,160.5C 488.16,156.124 487.493,151.791 486.5,147.5C 486.833,146.833 487.167,146.167 487.5,145.5C 489.577,147.076 491.077,149.076 492,151.5C 491.936,155.679 493.102,159.345 495.5,162.5 Z"/></g>
<g><path style="opacity:1" fill="#ecefbc" d="M 454.5,160.5 C 459.249,168.796 460.749,177.796 459,187.5C 458.722,188.416 458.222,189.082 457.5,189.5C 458.459,183.862 458.626,178.195 458,172.5C 456.516,168.553 455.35,164.553 454.5,160.5 Z"/></g>
<g><path style="opacity:1" fill="#a5d5a4" d="M 366.5,167.5 C 368.211,175.943 369.378,184.61 370,193.5C 372.039,194.978 372.872,196.978 372.5,199.5C 370.709,198.517 369.209,197.184 368,195.5C 366.818,186.204 366.318,176.87 366.5,167.5 Z"/></g>
<g><path style="opacity:1" fill="#24b1c8" d="M 228.5,248.5 C 227.833,250.5 227.167,252.5 226.5,254.5C 224.557,257.471 221.891,259.471 218.5,260.5C 211.5,260.5 204.5,260.5 197.5,260.5C 197.5,227.5 197.5,194.5 197.5,161.5C 198.363,159.579 199.029,157.579 199.5,155.5C 200.924,153.485 201.59,151.152 201.5,148.5C 201.977,145.975 203.31,143.975 205.5,142.5C 207.492,140.637 208.992,138.304 210,135.5C 210.667,134.833 211.333,134.167 212,133.5C 212.343,136.619 211.51,139.452 209.5,142C 209.763,144.432 210.763,146.432 212.5,148C 210.98,149.885 209.98,152.051 209.5,154.5C 211.2,157.55 211.366,160.884 210,164.5C 209.25,165.126 208.416,165.626 207.5,166C 208.804,166.804 209.471,167.971 209.5,169.5C 207.867,171.387 208.2,172.887 210.5,174C 208.915,177.577 208.748,181.077 210,184.5C 211.333,184.5 212.667,184.5 214,184.5C 214.684,185.784 214.517,186.951 213.5,188C 215.125,190.11 216.458,192.443 217.5,195C 216.833,195.333 216.167,195.667 215.5,196C 215.847,198.19 217.18,200.023 219.5,201.5C 219.55,203.831 219.217,205.997 218.5,208C 219.184,209.693 220.184,211.193 221.5,212.5C 220.45,214.102 221.117,214.935 223.5,215C 221.522,215.481 220.189,216.647 219.5,218.5C 220.068,221.412 220.068,224.412 219.5,227.5C 221.167,227.5 222.833,227.5 224.5,227.5C 225.977,231.728 227.31,236.061 228.5,240.5C 228.279,243.943 227.279,244.276 225.5,241.5C 223.084,242.913 222.584,244.58 224,246.5C 226.595,243.871 228.095,244.538 228.5,248.5 Z"/></g>
<g><path style="opacity:1" fill="#f5f3cb" d="M 493.5,151.5 C 494.558,153.808 495.724,156.142 497,158.5C 497.779,165.342 498.613,172.175 499.5,179C 499.474,188.439 497.474,197.273 493.5,205.5C 494.351,200.775 495.518,196.108 497,191.5C 497.923,182.272 497.423,173.272 495.5,164.5C 495.5,163.833 495.5,163.167 495.5,162.5C 494.537,158.899 493.87,155.233 493.5,151.5 Z"/></g>
<g><path style="opacity:1" fill="#c9da64" d="M 457.5,193.5 C 458.162,198.611 459.328,198.611 461,193.5C 461.923,194.759 462.757,196.092 463.5,197.5C 464.167,197.167 464.833,196.833 465.5,196.5C 465.88,198.021 466.046,199.687 466,201.5C 466.333,201.167 466.667,200.833 467,200.5C 469.459,202.05 470.126,204.05 469,206.5C 470.32,206.799 471.82,206.966 473.5,207C 477.164,209.4 477.831,212.234 475.5,215.5C 476.603,215.998 477.603,216.331 478.5,216.5C 475.943,219.699 474.943,223.366 475.5,227.5C 473.796,230.191 472.129,232.858 470.5,235.5C 469.448,235.351 468.448,235.517 467.5,236C 465.309,238.113 463.642,240.613 462.5,243.5C 463.325,244.386 464.325,244.719 465.5,244.5C 463.206,246.653 460.54,248.32 457.5,249.5C 454.802,249.092 452.469,247.926 450.5,246C 451.764,243.399 453.431,241.066 455.5,239C 454.305,237.467 454.305,235.967 455.5,234.5C 454.187,232.032 452.521,229.865 450.5,228C 451.568,224.937 450.901,222.27 448.5,220C 448.833,219.667 449.167,219.333 449.5,219C 448.299,218.097 447.465,216.931 447,215.5C 445.654,217.342 443.821,218.342 441.5,218.5C 441.433,217.041 441.766,215.708 442.5,214.5C 447.225,212.108 450.558,208.441 452.5,203.5C 453.137,199.559 454.803,196.226 457.5,193.5 Z"/></g>
<g><path style="opacity:1" fill="#85c690" d="M 346.5,131.5 C 355.613,143.606 360.28,157.273 360.5,172.5C 361.043,176.342 362.043,180.009 363.5,183.5C 361.867,185.387 362.2,186.887 364.5,188C 364.913,189.537 364.913,191.204 364.5,193C 366.067,199.046 368.4,204.713 371.5,210C 369.158,212.419 369.491,214.753 372.5,217C 371.692,217.308 371.025,217.808 370.5,218.5C 371.833,219.5 371.833,220.5 370.5,221.5C 371.289,223.488 372.455,223.821 374,222.5C 374.374,223.416 374.874,224.25 375.5,225C 374.862,226.707 374.862,228.54 375.5,230.5C 370.578,230.928 366.078,230.928 362,230.5C 362.919,233.284 363.419,236.284 363.5,239.5C 358.407,239.612 358.407,240.445 363.5,242C 362.549,242.718 362.383,243.551 363,244.5C 365.08,246.123 367.246,247.623 369.5,249C 370.252,249.671 370.586,250.504 370.5,251.5C 359.22,245.887 350.553,237.553 344.5,226.5C 346.293,222.522 344.96,220.522 340.5,220.5C 339.807,214.995 341.64,213.329 346,215.5C 346.388,214.572 347.055,213.905 348,213.5C 349.693,215.454 351.693,215.454 354,213.5C 355.681,207.915 357.181,202.248 358.5,196.5C 356.501,193.006 354.835,189.339 353.5,185.5C 355.342,180.826 354.009,178.659 349.5,179C 350,178.5 350.5,178 351,177.5C 351.364,173.133 351.53,168.966 351.5,165C 348.949,163.484 349.282,162.651 352.5,162.5C 352.5,161.167 352.5,159.833 352.5,158.5C 351.325,158.719 350.325,158.386 349.5,157.5C 349.569,155.722 349.903,153.889 350.5,152C 348.346,149.237 348.18,146.404 350,143.5C 350.333,144.167 350.667,144.833 351,145.5C 351.455,141.602 349.789,138.935 346,137.5C 345.82,135.512 345.986,133.512 346.5,131.5 Z"/></g>
<g><path style="opacity:1" fill="#30b4c2" d="M 95.5,254.5 C 90.5352,259.275 84.5352,261.941 77.5,262.5C 76.668,258.503 78.168,255.836 82,254.5C 82.3333,254.833 82.6667,255.167 83,255.5C 84.1675,252.107 83.3342,249.441 80.5,247.5C 81.8078,243.545 82.4745,239.711 82.5,236C 81.5,235.167 80.5,234.333 79.5,233.5C 79.5847,230.188 79.918,226.855 80.5,223.5C 78.1557,217.586 76.8223,211.42 76.5,205C 79.9942,203.25 80.1608,201.416 77,199.5C 76.6667,189.833 76.3333,180.167 76,170.5C 72.1509,163.354 71.3176,155.687 73.5,147.5C 74.555,143.725 75.8883,140.058 77.5,136.5C 79.0174,136.489 80.1841,135.823 81,134.5C 82.0736,135.618 83.2402,136.618 84.5,137.5C 81.012,141.88 80.6787,146.547 83.5,151.5C 80.5294,156.179 81.1961,160.346 85.5,164C 84.8333,164.333 84.1667,164.667 83.5,165C 84.5348,166.507 84.3681,168.007 83,169.5C 81.4555,168.179 80.2888,168.512 79.5,170.5C 80.7515,171.631 81.7515,172.964 82.5,174.5C 82.3333,175.167 82.1667,175.833 82,176.5C 81.4444,174.405 80.9444,174.238 80.5,176C 81.3943,177.396 82.0609,178.896 82.5,180.5C 81.0622,182.345 81.3956,183.511 83.5,184C 84.0808,185.865 83.4141,187.531 81.5,189C 82.3632,191.227 83.3632,193.393 84.5,195.5C 83.3052,197.751 82.3052,200.085 81.5,202.5C 81.7404,206.086 81.9071,209.752 82,213.5C 83.6667,213.167 85.3333,212.833 87,212.5C 88.951,218.638 91.2843,224.971 94,231.5C 95.5699,232.614 96.9032,233.947 98,235.5C 98.6016,238.928 99.1016,242.095 99.5,245C 98.5388,247.576 97.0388,249.743 95,251.5C 94.2599,252.749 94.4265,253.749 95.5,254.5 Z"/></g>
<g><path style="opacity:1" fill="#83c6d3" d="M 197.5,161.5 C 197.5,194.5 197.5,227.5 197.5,260.5C 204.5,260.5 211.5,260.5 218.5,260.5C 211.352,261.492 204.019,261.825 196.5,261.5C 196.5,228.5 196.5,195.5 196.5,162.5C 196.5,161.833 196.833,161.5 197.5,161.5 Z"/></g>
<g><path style="opacity:1" fill="#d4df93" d="M 452.5,203.5 C 450.558,208.441 447.225,212.108 442.5,214.5C 445.862,210.808 449.195,207.141 452.5,203.5 Z"/></g>
<g><path style="opacity:1" fill="#bcd76c" d="M 457.5,249.5 C 457.167,250.167 456.833,250.833 456.5,251.5C 450.485,255.01 444.151,257.677 437.5,259.5C 432.203,260.275 426.87,260.608 421.5,260.5C 420.282,259.839 418.949,259.172 417.5,258.5C 419.766,257.686 422.1,257.186 424.5,257C 424.5,256 424.5,255 424.5,254C 427.329,252.491 430.162,252.325 433,253.5C 433.492,252.451 433.326,251.451 432.5,250.5C 433.242,248.65 434.242,247.984 435.5,248.5C 434.359,247.575 434.359,246.741 435.5,246C 431.678,244.307 432.011,242.973 436.5,242C 435.833,241.333 435.167,240.667 434.5,240C 435.571,237.136 435.571,233.97 434.5,230.5C 435.145,228.568 436.479,227.401 438.5,227C 436.023,226.283 433.356,225.116 430.5,223.5C 431.689,222.571 433.022,222.238 434.5,222.5C 434.5,221.5 434.5,220.5 434.5,219.5C 436.806,219.007 439.139,218.674 441.5,218.5C 443.821,218.342 445.654,217.342 447,215.5C 447.465,216.931 448.299,218.097 449.5,219C 449.167,219.333 448.833,219.667 448.5,220C 450.901,222.27 451.568,224.937 450.5,228C 452.521,229.865 454.187,232.032 455.5,234.5C 454.305,235.967 454.305,237.467 455.5,239C 453.431,241.066 451.764,243.399 450.5,246C 452.469,247.926 454.802,249.092 457.5,249.5 Z"/></g>
<g><path style="opacity:1" fill="#1bb0ce" d="M 198.5,194.5 C 200.47,198.834 201.636,203.5 202,208.5C 205.351,212.04 205.851,215.873 203.5,220C 204.13,224.871 204.963,229.705 206,234.5C 207.011,235.337 208.178,235.67 209.5,235.5C 208.638,237.095 208.138,238.762 208,240.5C 209.388,239.446 210.888,239.28 212.5,240C 211.672,243.171 212.672,245.838 215.5,248C 212.119,248.182 211.119,249.682 212.5,252.5C 214.386,252.928 216.219,253.261 218,253.5C 219.921,251.997 222.088,251.331 224.5,251.5C 224.5,252.833 224.5,254.167 224.5,255.5C 222.409,255.682 220.409,255.348 218.5,254.5C 212.374,258.109 205.707,259.442 198.5,258.5C 198.5,237.167 198.5,215.833 198.5,194.5 Z"/></g>
<g><path style="opacity:1" fill="#f4f3c7" d="M 487.5,219.5 C 487.069,222.449 485.902,225.116 484,227.5C 483.329,228.252 482.496,228.586 481.5,228.5C 482.723,224.951 484.723,221.951 487.5,219.5 Z"/></g>
<g><path style="opacity:1" fill="#9dcc7f" d="M 387.5,216.5 C 400.501,225.142 414.501,226.808 429.5,221.5C 426.313,224.925 422.313,226.259 417.5,225.5C 412.156,225.334 406.823,225.501 401.5,226C 404.257,227.03 405.591,228.697 405.5,231C 403.833,232.667 402.167,234.333 400.5,236C 401.167,236.667 401.833,237.333 402.5,238C 401.622,241.209 400.289,244.209 398.5,247C 399.833,248.333 399.833,249.667 398.5,251C 396.236,251.236 394.069,251.736 392,252.5C 388.483,252.72 384.983,252.22 381.5,251C 381.835,252.503 381.835,253.836 381.5,255C 384.833,255.333 388.167,255.667 391.5,256C 388.668,257.908 389.001,258.741 392.5,258.5C 393.833,259.167 395.167,259.833 396.5,260.5C 395.167,260.5 393.833,260.5 392.5,260.5C 386.988,258.385 381.321,256.552 375.5,255C 373.416,254.303 371.749,253.136 370.5,251.5C 372.137,252.218 373.803,252.384 375.5,252C 374.692,251.692 374.025,251.192 373.5,250.5C 374.145,249.268 374.311,247.935 374,246.5C 374.718,247.451 375.551,247.617 376.5,247C 373.801,244.457 373.801,243.79 376.5,245C 378.527,245.498 380.527,245.331 382.5,244.5C 384.029,244.529 385.196,245.196 386,246.5C 387.423,244.496 389.256,242.996 391.5,242C 390.833,240.667 390.167,239.333 389.5,238C 390.744,237.544 391.577,238.044 392,239.5C 392.5,238.5 393,237.5 393.5,236.5C 385.224,234.448 383.557,229.948 388.5,223C 386.006,220.917 383.673,218.751 381.5,216.5C 381.833,216.167 382.167,215.833 382.5,215.5C 384.204,217.041 386.037,218.375 388,219.5C 388.5,219.333 389,219.167 389.5,219C 388.244,218.583 387.577,217.75 387.5,216.5 Z"/></g>
<g><path style="opacity:1" fill="#a7d079" d="M 417.5,225.5 C 416.319,227.067 414.653,227.901 412.5,228C 413.833,228.667 413.833,229.333 412.5,230C 414.134,230.494 415.801,230.66 417.5,230.5C 418.072,232.979 418.072,235.313 417.5,237.5C 417.875,239.459 418.541,241.293 419.5,243C 420.108,245.184 419.441,247.184 417.5,249C 417.833,249.333 418.167,249.667 418.5,250C 417.069,250.465 415.903,251.299 415,252.5C 414.439,251.978 413.772,251.645 413,251.5C 406.336,254.554 399.503,256.887 392.5,258.5C 389.001,258.741 388.668,257.908 391.5,256C 388.167,255.667 384.833,255.333 381.5,255C 381.835,253.836 381.835,252.503 381.5,251C 384.983,252.22 388.483,252.72 392,252.5C 394.069,251.736 396.236,251.236 398.5,251C 399.833,249.667 399.833,248.333 398.5,247C 400.289,244.209 401.622,241.209 402.5,238C 401.833,237.333 401.167,236.667 400.5,236C 402.167,234.333 403.833,232.667 405.5,231C 405.591,228.697 404.257,227.03 401.5,226C 406.823,225.501 412.156,225.334 417.5,225.5 Z"/></g>
<g><path style="opacity:1" fill="#b1d472" d="M 442.5,214.5 C 441.766,215.708 441.433,217.041 441.5,218.5C 439.139,218.674 436.806,219.007 434.5,219.5C 434.5,220.5 434.5,221.5 434.5,222.5C 433.022,222.238 431.689,222.571 430.5,223.5C 433.356,225.116 436.023,226.283 438.5,227C 436.479,227.401 435.145,228.568 434.5,230.5C 435.571,233.97 435.571,237.136 434.5,240C 435.167,240.667 435.833,241.333 436.5,242C 432.011,242.973 431.678,244.307 435.5,246C 434.359,246.741 434.359,247.575 435.5,248.5C 434.242,247.984 433.242,248.65 432.5,250.5C 433.326,251.451 433.492,252.451 433,253.5C 430.162,252.325 427.329,252.491 424.5,254C 424.5,255 424.5,256 424.5,257C 422.1,257.186 419.766,257.686 417.5,258.5C 418.949,259.172 420.282,259.839 421.5,260.5C 413.167,260.5 404.833,260.5 396.5,260.5C 395.167,259.833 393.833,259.167 392.5,258.5C 399.503,256.887 406.336,254.554 413,251.5C 413.772,251.645 414.439,251.978 415,252.5C 415.903,251.299 417.069,250.465 418.5,250C 418.167,249.667 417.833,249.333 417.5,249C 419.441,247.184 420.108,245.184 419.5,243C 418.541,241.293 417.875,239.459 417.5,237.5C 418.072,235.313 418.072,232.979 417.5,230.5C 415.801,230.66 414.134,230.494 412.5,230C 413.833,229.333 413.833,228.667 412.5,228C 414.653,227.901 416.319,227.067 417.5,225.5C 422.313,226.259 426.313,224.925 429.5,221.5C 433.701,218.9 438.034,216.566 442.5,214.5 Z"/></g>
<g><path style="opacity:1" fill="#e9eaa7" d="M 481.5,228.5 C 480.92,230.749 479.587,232.415 477.5,233.5C 478.08,231.251 479.413,229.585 481.5,228.5 Z"/></g>
<g><path style="opacity:1" fill="#8cca87" d="M 353.5,132.5 C 355.463,139.424 358.463,145.757 362.5,151.5C 363.697,156.629 365.031,161.629 366.5,166.5C 366.5,166.833 366.5,167.167 366.5,167.5C 366.318,176.87 366.818,186.204 368,195.5C 369.209,197.184 370.709,198.517 372.5,199.5C 376.322,206.002 381.322,211.669 387.5,216.5C 387.577,217.75 388.244,218.583 389.5,219C 389,219.167 388.5,219.333 388,219.5C 386.037,218.375 384.204,217.041 382.5,215.5C 382.167,215.833 381.833,216.167 381.5,216.5C 383.673,218.751 386.006,220.917 388.5,223C 383.557,229.948 385.224,234.448 393.5,236.5C 393,237.5 392.5,238.5 392,239.5C 391.577,238.044 390.744,237.544 389.5,238C 390.167,239.333 390.833,240.667 391.5,242C 389.256,242.996 387.423,244.496 386,246.5C 385.196,245.196 384.029,244.529 382.5,244.5C 380.527,245.331 378.527,245.498 376.5,245C 373.801,243.79 373.801,244.457 376.5,247C 375.551,247.617 374.718,247.451 374,246.5C 374.311,247.935 374.145,249.268 373.5,250.5C 374.025,251.192 374.692,251.692 375.5,252C 373.803,252.384 372.137,252.218 370.5,251.5C 370.586,250.504 370.252,249.671 369.5,249C 367.246,247.623 365.08,246.123 363,244.5C 362.383,243.551 362.549,242.718 363.5,242C 358.407,240.445 358.407,239.612 363.5,239.5C 363.419,236.284 362.919,233.284 362,230.5C 366.078,230.928 370.578,230.928 375.5,230.5C 374.862,228.54 374.862,226.707 375.5,225C 374.874,224.25 374.374,223.416 374,222.5C 372.455,223.821 371.289,223.488 370.5,221.5C 371.833,220.5 371.833,219.5 370.5,218.5C 371.025,217.808 371.692,217.308 372.5,217C 369.491,214.753 369.158,212.419 371.5,210C 368.4,204.713 366.067,199.046 364.5,193C 364.913,191.204 364.913,189.537 364.5,188C 362.2,186.887 361.867,185.387 363.5,183.5C 362.043,180.009 361.043,176.342 360.5,172.5C 360.28,157.273 355.613,143.606 346.5,131.5C 344.289,130.077 343.455,128.077 344,125.5C 347.326,127.665 350.492,129.998 353.5,132.5 Z"/></g>
<g><path style="opacity:1" fill="#d2dc53" d="M 495.5,164.5 C 497.423,173.272 497.923,182.272 497,191.5C 495.518,196.108 494.351,200.775 493.5,205.5C 492.042,210.415 490.042,215.081 487.5,219.5C 484.723,221.951 482.723,224.951 481.5,228.5C 479.413,229.585 478.08,231.251 477.5,233.5C 473.5,237.167 469.5,240.833 465.5,244.5C 464.325,244.719 463.325,244.386 462.5,243.5C 463.642,240.613 465.309,238.113 467.5,236C 468.448,235.517 469.448,235.351 470.5,235.5C 472.129,232.858 473.796,230.191 475.5,227.5C 476.692,224.952 478.358,222.618 480.5,220.5C 479.538,218.117 480.538,217.117 483.5,217.5C 484.932,212.083 486.932,207.083 489.5,202.5C 488.527,204.068 488.36,205.735 489,207.5C 490.561,201.477 492.894,195.81 496,190.5C 496.536,181.82 496.37,173.154 495.5,164.5 Z"/></g>
<g><path style="opacity:1" fill="#2cb2c7" d="M 73.5,147.5 C 71.3176,155.687 72.1509,163.354 76,170.5C 76.3333,180.167 76.6667,189.833 77,199.5C 80.1608,201.416 79.9942,203.25 76.5,205C 76.8223,211.42 78.1557,217.586 80.5,223.5C 79.918,226.855 79.5847,230.188 79.5,233.5C 80.5,234.333 81.5,235.167 82.5,236C 82.4745,239.711 81.8078,243.545 80.5,247.5C 83.3342,249.441 84.1675,252.107 83,255.5C 82.6667,255.167 82.3333,254.833 82,254.5C 78.168,255.836 76.668,258.503 77.5,262.5C 74.7814,263.913 71.7814,264.58 68.5,264.5C 68.3334,233.498 68.5,202.498 69,171.5C 70.0045,163.256 71.5045,155.256 73.5,147.5 Z"/></g>
<g><path style="opacity:1" fill="#edf0c6" d="M 477.5,233.5 C 472.319,241.686 465.319,247.686 456.5,251.5C 456.833,250.833 457.167,250.167 457.5,249.5C 460.54,248.32 463.206,246.653 465.5,244.5C 469.5,240.833 473.5,237.167 477.5,233.5 Z"/></g>
<g><path style="opacity:1" fill="#cadfa0" d="M 437.5,259.5 C 436.737,260.268 435.737,260.768 434.5,261C 420.327,261.827 406.327,261.661 392.5,260.5C 393.833,260.5 395.167,260.5 396.5,260.5C 404.833,260.5 413.167,260.5 421.5,260.5C 426.87,260.608 432.203,260.275 437.5,259.5 Z"/></g>
<g><path style="opacity:1" fill="#a6a4a4" d="M 537.5,349.5 C 535.603,348.016 533.936,346.182 532.5,344C 514.147,343.766 495.814,343.266 477.5,342.5C 477.667,361.503 477.5,380.503 477,399.5C 476.809,397.292 476.309,395.292 475.5,393.5C 475.5,375.833 475.5,358.167 475.5,340.5C 496.144,341.441 516.811,341.774 537.5,341.5C 537.5,344.167 537.5,346.833 537.5,349.5 Z"/></g>
<g><path style="opacity:1" fill="#b7b6b6" d="M 321.5,341.5 C 328.841,341.334 336.174,341.5 343.5,342C 342.167,342.333 340.833,342.667 339.5,343C 339.833,343.333 340.167,343.667 340.5,344C 334.818,344.023 329.318,344.856 324,346.5C 323.086,345.346 322.253,345.513 321.5,347C 322.833,347.333 324.167,347.667 325.5,348C 322.5,349.667 319.5,351.333 316.5,353C 319.853,352.191 323.353,351.357 327,350.5C 327.765,350.57 328.265,350.903 328.5,351.5C 316.462,353.873 310.129,361.206 309.5,373.5C 308.314,370.041 308.647,366.541 310.5,363C 310.056,361.238 309.556,361.405 309,363.5C 308.675,361.447 309.009,359.447 310,357.5C 313.489,353.869 316.822,350.535 320,347.5C 317.825,348.255 315.659,349.088 313.5,350C 310,353.167 306.5,356.333 303,359.5C 301.817,363.768 300.817,368.101 300,372.5C 299.503,370.19 299.337,367.857 299.5,365.5C 302.319,353.348 309.653,345.348 321.5,341.5 Z"/></g>
<g><path style="opacity:1" fill="#c4c3c3" d="M 321.5,341.5 C 337.325,340.504 353.325,340.17 369.5,340.5C 369.5,364.167 369.5,387.833 369.5,411.5C 364.833,411.5 360.167,411.5 355.5,411.5C 355.808,405.575 355.475,399.741 354.5,394C 338.837,393.5 323.17,393.333 307.5,393.5C 307.5,399.5 307.5,405.5 307.5,411.5C 304.223,411.784 301.057,411.451 298,410.5C 297.333,397.167 297.333,383.833 298,370.5C 298.198,368.618 298.698,366.952 299.5,365.5C 299.337,367.857 299.503,370.19 300,372.5C 300.817,368.101 301.817,363.768 303,359.5C 306.5,356.333 310,353.167 313.5,350C 315.659,349.088 317.825,348.255 320,347.5C 316.822,350.535 313.489,353.869 310,357.5C 309.009,359.447 308.675,361.447 309,363.5C 309.556,361.405 310.056,361.238 310.5,363C 308.647,366.541 308.314,370.041 309.5,373.5C 308.232,375.67 308.232,377.837 309.5,380C 324.83,380.5 340.163,380.667 355.5,380.5C 355.5,370.5 355.5,360.5 355.5,350.5C 346.416,350.196 337.416,350.529 328.5,351.5C 328.265,350.903 327.765,350.57 327,350.5C 323.353,351.357 319.853,352.191 316.5,353C 319.5,351.333 322.5,349.667 325.5,348C 324.167,347.667 322.833,347.333 321.5,347C 322.253,345.513 323.086,345.346 324,346.5C 329.318,344.856 334.818,344.023 340.5,344C 340.167,343.667 339.833,343.333 339.5,343C 340.833,342.667 342.167,342.333 343.5,342C 336.174,341.5 328.841,341.334 321.5,341.5 Z"/></g>
<g><path style="opacity:1" fill="#fdfdfd" d="M 309.5,373.5 C 310.129,361.206 316.462,353.873 328.5,351.5C 337.416,350.529 346.416,350.196 355.5,350.5C 355.5,360.5 355.5,370.5 355.5,380.5C 340.163,380.667 324.83,380.5 309.5,380C 308.232,377.837 308.232,375.67 309.5,373.5 Z"/></g>
<g><path style="opacity:1" fill="#c2c1c1" d="M 125.5,340.5 C 129.767,340.203 133.934,340.536 138,341.5C 138.181,350.744 138.681,359.911 139.5,369C 155.163,369.5 170.83,369.667 186.5,369.5C 186.5,359.833 186.5,350.167 186.5,340.5C 189.777,340.216 192.943,340.549 196,341.5C 196.5,364.831 196.667,388.164 196.5,411.5C 193.223,411.784 190.057,411.451 187,410.5C 186.819,401.256 186.319,392.089 185.5,383C 169.837,382.5 154.17,382.333 138.5,382.5C 138.5,392.167 138.5,401.833 138.5,411.5C 134.233,411.797 130.066,411.464 126,410.5C 125.5,387.169 125.333,363.836 125.5,340.5 Z"/></g>
<g><path style="opacity:1" fill="#c2c2c2" d="M 385.5,340.5 C 389.5,340.5 393.5,340.5 397.5,340.5C 397.5,350.167 397.5,359.833 397.5,369.5C 413.5,369.5 429.5,369.5 445.5,369.5C 445.5,359.833 445.5,350.167 445.5,340.5C 448.833,340.5 452.167,340.5 455.5,340.5C 455.5,364.167 455.5,387.833 455.5,411.5C 452.223,411.784 449.057,411.451 446,410.5C 445.5,401.173 445.334,391.839 445.5,382.5C 429.5,382.5 413.5,382.5 397.5,382.5C 397.5,392.167 397.5,401.833 397.5,411.5C 393.5,411.5 389.5,411.5 385.5,411.5C 385.5,387.833 385.5,364.167 385.5,340.5 Z"/></g>
<g><path style="opacity:1" fill="#bfbebe" d="M 492.5,369.5 C 506.5,369.5 520.5,369.5 534.5,369.5C 534.5,373.833 534.5,378.167 534.5,382.5C 520.5,382.5 506.5,382.5 492.5,382.5C 492.5,378.167 492.5,373.833 492.5,369.5 Z"/></g>
<g><path style="opacity:1" fill="#b9b9ba" d="M 37.5,369.5 C 37.5,383.5 37.5,397.5 37.5,411.5C 33.2984,411.817 29.2984,411.483 25.5,410.5C 25.3334,387.831 25.5,365.164 26,342.5C 26.0751,363.871 26.9085,385.205 28.5,406.5C 29.1667,406.833 29.8333,407.167 30.5,407.5C 31.1924,402.952 31.8591,398.452 32.5,394C 31.6193,389.414 31.286,384.914 31.5,380.5C 32.1449,379.354 32.9783,378.354 34,377.5C 34.3333,380.833 34.6667,384.167 35,387.5C 35.3333,381.5 35.6667,375.5 36,369.5C 36.69,368.262 37.19,368.262 37.5,369.5 Z"/></g>
<g><path style="opacity:1" fill="#c3c2c3" d="M 37.5,369.5 C 37.19,368.262 36.69,368.262 36,369.5C 35.6667,375.5 35.3333,381.5 35,387.5C 34.6667,384.167 34.3333,380.833 34,377.5C 32.9783,378.354 32.1449,379.354 31.5,380.5C 31.286,384.914 31.6193,389.414 32.5,394C 31.8591,398.452 31.1924,402.952 30.5,407.5C 29.8333,407.167 29.1667,406.833 28.5,406.5C 26.9085,385.205 26.0751,363.871 26,342.5C 25.5,365.164 25.3334,387.831 25.5,410.5C 24.337,387.67 24.1703,364.67 25,341.5C 26.8962,339.47 29.0629,337.803 31.5,336.5C 33.8579,338.024 35.6912,340.024 37,342.5C 46.5707,360.047 56.9041,377.047 68,393.5C 77.8579,375.289 88.1912,357.289 99,339.5C 102.228,336.87 105.395,337.036 108.5,340C 109.494,363.759 109.828,387.592 109.5,411.5C 105.233,411.797 101.066,411.464 97,410.5C 96.6667,397.167 96.3333,383.833 96,370.5C 87.729,381.37 80.729,393.037 75,405.5C 73.3804,407.241 71.8804,409.075 70.5,411C 67.5706,411.777 64.7372,411.61 62,410.5C 55.274,396.713 47.774,383.38 39.5,370.5C 39.0431,369.702 38.3764,369.369 37.5,369.5 Z"/></g>
<g><path style="opacity:1" fill="#c3c2c2" d="M 280.5,408.5 C 271.214,409.613 261.881,409.78 252.5,409C 252.167,408.667 251.833,408.333 251.5,408C 253.5,407.667 255.5,407.333 257.5,407C 254.204,406.543 251.037,405.709 248,404.5C 245.443,405.646 244.11,404.646 244,401.5C 242.084,401.355 240.251,401.855 238.5,403C 239.833,402 239.833,401 238.5,400C 249.81,400.293 261.144,400.46 272.5,400.5C 272.833,380.822 272.5,361.155 271.5,341.5C 270.833,360.662 270.167,379.662 269.5,398.5C 269.5,379.167 269.5,359.833 269.5,340.5C 273.5,340.5 277.5,340.5 281.5,340.5C 281.831,363.339 281.497,386.006 280.5,408.5 Z"/></g>
<g><path style="opacity:1" fill="#bdbcbc" d="M 269.5,398.5 C 270.167,379.662 270.833,360.662 271.5,341.5C 272.5,361.155 272.833,380.822 272.5,400.5C 261.144,400.46 249.81,400.293 238.5,400C 239.833,401 239.833,402 238.5,403C 240.251,401.855 242.084,401.355 244,401.5C 244.11,404.646 245.443,405.646 248,404.5C 251.037,405.709 254.204,406.543 257.5,407C 255.5,407.333 253.5,407.667 251.5,408C 251.833,408.333 252.167,408.667 252.5,409C 261.881,409.78 271.214,409.613 280.5,408.5C 279.319,410.067 277.653,410.901 275.5,411C 264.167,411.667 252.833,411.667 241.5,411C 225.193,408.69 215.359,399.524 212,383.5C 211.5,369.171 211.333,354.837 211.5,340.5C 214.777,340.216 217.943,340.549 221,341.5C 221.333,352.5 221.667,363.5 222,374.5C 223.003,380.873 225.003,386.873 228,392.5C 230.511,394.563 233.344,396.063 236.5,397C 247.46,398.285 258.46,398.785 269.5,398.5 Z"/></g>
<g><path style="opacity:1" fill="#c1c0c0" d="M 537.5,349.5 C 521.008,350.497 504.342,350.83 487.5,350.5C 487.5,361.833 487.5,373.167 487.5,384.5C 486.669,373.007 486.169,361.341 486,349.5C 485.333,363.5 485.333,377.5 486,391.5C 486.182,394.226 486.682,396.893 487.5,399.5C 503.47,400.483 519.47,400.65 535.5,400C 536.751,402.953 536.751,405.953 535.5,409C 535.836,410.03 536.503,410.53 537.5,410.5C 529.674,411.166 521.674,411.5 513.5,411.5C 504.11,411.611 494.776,411.111 485.5,410C 478.375,406.788 475.042,401.288 475.5,393.5C 476.309,395.292 476.809,397.292 477,399.5C 477.5,380.503 477.667,361.503 477.5,342.5C 495.814,343.266 514.147,343.766 532.5,344C 533.936,346.182 535.603,348.016 537.5,349.5 Z"/></g>
<g><path style="opacity:1" fill="#aaa9a8" d="M 487.5,384.5 C 487.5,389.167 487.5,393.833 487.5,398.5C 504.167,398.5 520.833,398.5 537.5,398.5C 537.5,402.5 537.5,406.5 537.5,410.5C 536.503,410.53 535.836,410.03 535.5,409C 536.751,405.953 536.751,402.953 535.5,400C 519.47,400.65 503.47,400.483 487.5,399.5C 486.682,396.893 486.182,394.226 486,391.5C 485.333,377.5 485.333,363.5 486,349.5C 486.169,361.341 486.669,373.007 487.5,384.5 Z"/></g>
<g><path style="opacity:1" fill="#fbfbfb" d="M 259.5,472.5 C 264.5,474.167 267.833,477.5 269.5,482.5C 269.5,484.167 269.5,485.833 269.5,487.5C 267.821,496.5 262.488,500.334 253.5,499C 245.603,493.196 243.436,485.696 247,476.5C 250.387,472.961 254.553,471.628 259.5,472.5 Z"/></g>
<g><path style="opacity:1" fill="#7b7a7a" d="M 355.5,476.5 C 355.299,472.64 356.965,470.806 360.5,471C 358.7,472.812 357.033,474.645 355.5,476.5 Z"/></g>
<g><path style="opacity:1" fill="#878687" d="M 205.5,476.5 C 204.732,475.737 204.232,474.737 204,473.5C 203.817,476.365 203.317,479.031 202.5,481.5C 202.18,478.102 202.513,474.768 203.5,471.5C 205.217,472.668 205.884,474.335 205.5,476.5 Z"/></g>
<g><path style="opacity:1" fill="#5a5a5d" d="M 254.5,470.5 C 262.1,470.296 267.433,473.629 270.5,480.5C 270.672,481.492 270.338,482.158 269.5,482.5C 267.833,477.5 264.5,474.167 259.5,472.5C 257.833,471.833 256.167,471.167 254.5,470.5 Z"/></g>
<g><path style="opacity:1" fill="#8e8e8f" d="M 283.5,472.5 C 282.566,473.568 282.232,474.901 282.5,476.5C 283.5,476.5 284.5,476.5 285.5,476.5C 289.891,482.259 294.057,488.259 298,494.5C 299.231,486.911 299.897,479.244 300,471.5C 300.832,481.184 300.665,490.851 299.5,500.5C 294.83,493.831 290.663,486.831 287,479.5C 285.89,477.963 284.39,477.297 282.5,477.5C 282.831,485.528 282.498,493.528 281.5,501.5C 281.027,495.746 281.027,489.913 281.5,484C 281.833,479.833 282.167,475.667 282.5,471.5C 283.107,471.624 283.44,471.957 283.5,472.5 Z"/></g>
<g><path style="opacity:1" fill="#494a4a" d="M 283.5,472.5 C 284.167,473.833 284.833,475.167 285.5,476.5C 284.5,476.5 283.5,476.5 282.5,476.5C 282.232,474.901 282.566,473.568 283.5,472.5 Z"/></g>
<g><path style="opacity:1" fill="#575656" d="M 227.5,479.5 C 226.508,479.672 225.842,479.338 225.5,478.5C 226.058,476.177 226.725,473.843 227.5,471.5C 227.949,474.044 227.949,476.71 227.5,479.5 Z"/></g>
<g><path style="opacity:1" fill="#434344" d="M 205.5,476.5 C 205.5,477.167 205.5,477.833 205.5,478.5C 205.567,479.959 205.234,481.292 204.5,482.5C 203.532,484.607 203.198,486.941 203.5,489.5C 202.549,488.081 202.216,486.415 202.5,484.5C 202.5,483.5 202.5,482.5 202.5,481.5C 203.317,479.031 203.817,476.365 204,473.5C 204.232,474.737 204.732,475.737 205.5,476.5 Z"/></g>
<g><path style="opacity:1" fill="#9b9a9a" d="M 225.5,478.5 C 225.842,479.338 226.508,479.672 227.5,479.5C 223.907,482.35 221.574,486.017 220.5,490.5C 220.627,485.768 222.293,481.768 225.5,478.5 Z"/></g>
<g><path style="opacity:1" fill="#a3a4a3" d="M 270.5,480.5 C 271.833,484.167 271.833,487.833 270.5,491.5C 270.768,489.901 270.434,488.568 269.5,487.5C 269.5,485.833 269.5,484.167 269.5,482.5C 270.338,482.158 270.672,481.492 270.5,480.5 Z"/></g>
<g><path style="opacity:1" fill="#8e8d8e" d="M 317.5,470.5 C 321.182,470.335 324.848,470.501 328.5,471C 325.242,471.212 322.076,471.712 319,472.5C 318.501,476.486 318.334,480.486 318.5,484.5C 331.833,485.167 331.833,485.833 318.5,486.5C 315.437,496.553 319.104,501.053 329.5,500C 326.367,501.57 323.033,501.903 319.5,501C 318.572,500.612 317.905,499.945 317.5,499C 317.419,489.464 317.419,479.964 317.5,470.5 Z"/></g>
<g><path style="opacity:1" fill="#8d8c8f" d="M 202.5,484.5 C 202.216,486.415 202.549,488.081 203.5,489.5C 203.823,493.226 203.489,496.893 202.5,500.5C 201.185,495.014 201.185,489.68 202.5,484.5 Z"/></g>
<g><path style="opacity:1" fill="#878586" d="M 254.5,470.5 C 256.167,471.167 257.833,471.833 259.5,472.5C 254.553,471.628 250.387,472.961 247,476.5C 243.436,485.696 245.603,493.196 253.5,499C 262.488,500.334 267.821,496.5 269.5,487.5C 270.434,488.568 270.768,489.901 270.5,491.5C 267.762,499.78 262.096,502.946 253.5,501C 245.26,495.682 242.093,488.182 244,478.5C 246.211,474.121 249.711,471.454 254.5,470.5 Z"/></g>
<g><path style="opacity:1" fill="#818182" d="M 355.5,476.5 C 355.027,480.452 353.694,484.119 351.5,487.5C 350.833,491.833 350.167,496.167 349.5,500.5C 349.381,496.952 349.215,493.285 349,489.5C 346.031,483.728 343.197,477.895 340.5,472C 341.01,470.174 341.844,470.007 343,471.5C 344.524,476.882 346.858,481.882 350,486.5C 351.749,483.051 353.583,479.717 355.5,476.5 Z"/></g>
<g><path style="opacity:1" fill="#999899" d="M 205.5,478.5 C 208.666,484.32 211.999,490.153 215.5,496C 216.449,496.617 217.282,496.451 218,495.5C 218.374,493.509 219.207,491.842 220.5,490.5C 220.324,494.033 218.991,497.033 216.5,499.5C 212.18,494.876 208.846,489.543 206.5,483.5C 206.043,482.702 205.376,482.369 204.5,482.5C 205.234,481.292 205.567,479.959 205.5,478.5 Z"/></g>
<g><path style="opacity:1" fill="#7d7b7b" d="M 227.5,481.5 C 228.165,484.314 228.498,487.314 228.5,490.5C 228.628,494.02 228.128,497.353 227,500.5C 227.318,494.212 227.484,487.879 227.5,481.5 Z"/></g>
</svg>
