<?xml version="1.0" encoding="UTF-8"?>
<!DOCTYPE svg PUBLIC "-//W3C//DTD SVG 1.1//EN" "http://www.w3.org/Graphics/SVG/1.1/DTD/svg11.dtd">
<svg xmlns="http://www.w3.org/2000/svg" version="1.1" width="800px" height="320px" viewBox="0 0 800 320">
<g><path style="opacity:1" fill="#4facb4" d="M -0.5,-0.5 C 266.167,-0.5 532.833,-0.5 799.5,-0.5C 799.5,106.167 799.5,212.833 799.5,319.5C 532.833,319.5 266.167,319.5 -0.5,319.5C -0.5,212.833 -0.5,106.167 -0.5,-0.5 Z"/></g>
<g><path style="opacity:1" fill="#202831" d="M 523.5,210.5 C 441.167,210.5 358.833,210.5 276.5,210.5C 276.5,160.167 276.5,109.833 276.5,59.5C 276.944,57.8868 277.944,56.7202 279.5,56C 360.248,55.0059 440.915,55.3392 521.5,57C 522,57.5 522.5,58 523,58.5C 523.5,109.166 523.667,159.832 523.5,210.5 Z"/></g>
<g><path style="opacity:1" fill="#d9dcdf" d="M 435.5,122.5 C 436.833,122.5 438.167,122.5 439.5,122.5C 439.5,124.5 439.5,126.5 439.5,128.5C 440.833,128.5 442.167,128.5 443.5,128.5C 443.5,129.5 443.5,130.5 443.5,131.5C 439.833,131.5 436.167,131.5 432.5,131.5C 432.5,130.5 432.5,129.5 432.5,128.5C 433.833,128.5 435.167,128.5 436.5,128.5C 436.167,126.5 435.833,124.5 435.5,122.5 Z"/></g>
<g><path style="opacity:1" fill="#e9eaeb" d="M 326.5,123.5 C 328.167,123.5 329.833,123.5 331.5,123.5C 332.214,129.905 333.381,136.239 335,142.5C 336.176,136.797 337.509,131.13 339,125.5C 340.401,123.808 342.234,123.141 344.5,123.5C 345.345,129.551 346.512,135.551 348,141.5C 349.491,135.87 350.824,130.203 352,124.5C 353.356,123.62 354.856,123.286 356.5,123.5C 354.91,132.6 352.91,141.6 350.5,150.5C 348.833,150.5 347.167,150.5 345.5,150.5C 342.735,129.268 340.068,129.268 337.5,150.5C 335.5,150.5 333.5,150.5 331.5,150.5C 329.964,141.484 328.297,132.484 326.5,123.5 Z"/></g>
<g><path style="opacity:1" fill="#ecedef" d="M 359.5,123.5 C 364.167,123.5 368.833,123.5 373.5,123.5C 373.5,124.833 373.5,126.167 373.5,127.5C 370.5,127.5 367.5,127.5 364.5,127.5C 364.5,129.833 364.5,132.167 364.5,134.5C 367.5,134.5 370.5,134.5 373.5,134.5C 373.5,135.833 373.5,137.167 373.5,138.5C 370.5,138.5 367.5,138.5 364.5,138.5C 364.5,141.167 364.5,143.833 364.5,146.5C 367.833,146.5 371.167,146.5 374.5,146.5C 374.5,147.833 374.5,149.167 374.5,150.5C 369.5,150.5 364.5,150.5 359.5,150.5C 359.5,141.5 359.5,132.5 359.5,123.5 Z"/></g>
<g><path style="opacity:1" fill="#e7e8ea" d="M 377.5,123.5 C 381.182,123.335 384.848,123.501 388.5,124C 394.244,127.132 394.911,131.132 390.5,136C 394.212,138.558 395.378,142.058 394,146.5C 392.786,148.049 391.286,149.215 389.5,150C 385.514,150.499 381.514,150.666 377.5,150.5C 377.5,141.5 377.5,132.5 377.5,123.5 Z"/></g>
<g><path style="opacity:1" fill="#ebedef" d="M 405.5,121.5 C 409.311,121.181 410.644,122.681 409.5,126C 413.824,127.305 416.158,125.805 416.5,121.5C 421.82,121.578 422.487,123.078 418.5,126C 421.817,126.498 425.15,126.665 428.5,126.5C 428.5,127.5 428.5,128.5 428.5,129.5C 418.5,129.5 408.5,129.5 398.5,129.5C 398.5,128.5 398.5,127.5 398.5,126.5C 401.247,126.813 403.914,126.48 406.5,125.5C 405.754,124.264 405.421,122.93 405.5,121.5 Z"/></g>
<g><path style="opacity:1" fill="#8f9296" d="M 452.5,121.5 C 451.527,123.948 451.194,126.615 451.5,129.5C 450.167,129.5 448.833,129.5 447.5,129.5C 447.5,127.5 447.5,125.5 447.5,123.5C 448.163,125.042 448.83,126.709 449.5,128.5C 450.167,125.833 450.833,123.167 451.5,120.5C 452.107,120.624 452.44,120.957 452.5,121.5 Z"/></g>
<g><path style="opacity:1" fill="#a0a4a7" d="M 447.5,123.5 C 445.656,125.279 444.99,127.612 445.5,130.5C 449.371,130.185 453.038,130.518 456.5,131.5C 452.5,131.5 448.5,131.5 444.5,131.5C 444.5,128.5 444.5,125.5 444.5,122.5C 445.791,122.263 446.791,122.596 447.5,123.5 Z"/></g>
<g><path style="opacity:1" fill="#e4e7e8" d="M 452.5,121.5 C 454.344,123.279 455.01,125.612 454.5,128.5C 455.5,128.5 456.5,128.5 457.5,128.5C 457.5,126.5 457.5,124.5 457.5,122.5C 458.5,122.5 459.5,122.5 460.5,122.5C 460.5,125.5 460.5,128.5 460.5,131.5C 459.167,131.5 457.833,131.5 456.5,131.5C 453.038,130.518 449.371,130.185 445.5,130.5C 444.99,127.612 445.656,125.279 447.5,123.5C 447.5,125.5 447.5,127.5 447.5,129.5C 448.833,129.5 450.167,129.5 451.5,129.5C 451.194,126.615 451.527,123.948 452.5,121.5 Z"/></g>
<g><path style="opacity:1" fill="#eff1f2" d="M 421.5,131.5 C 422.5,131.5 423.5,131.5 424.5,131.5C 424.5,138.167 424.5,144.833 424.5,151.5C 423.054,152.613 421.387,152.78 419.5,152C 418.391,150.187 419.058,149.354 421.5,149.5C 421.5,143.5 421.5,137.5 421.5,131.5 Z"/></g>
<g><path style="opacity:1" fill="#242a31" d="M 382.5,127.5 C 384.527,127.338 386.527,127.505 388.5,128C 389.648,132.697 387.648,134.864 382.5,134.5C 382.5,132.167 382.5,129.833 382.5,127.5 Z"/></g>
<g><path style="opacity:1" fill="#7f8287" d="M 462.5,133.5 C 456.463,133.171 450.463,133.504 444.5,134.5C 445.689,135.429 447.022,135.762 448.5,135.5C 447.081,136.451 445.415,136.784 443.5,136.5C 443.5,135.167 443.5,133.833 443.5,132.5C 450.022,132.177 456.355,132.51 462.5,133.5 Z"/></g>
<g><path style="opacity:1" fill="#fbfdfb" d="M 415.5,146.5 C 415.5,146.167 415.5,145.833 415.5,145.5C 416.166,141.647 416.833,137.647 417.5,133.5C 418.492,137.783 418.826,142.116 418.5,146.5C 417.5,146.5 416.5,146.5 415.5,146.5 Z"/></g>
<g><path style="opacity:1" fill="#f0f3f4" d="M 462.5,133.5 C 460.012,135.388 457.012,136.055 453.5,135.5C 453.5,136.5 453.5,137.5 453.5,138.5C 456.167,138.5 458.833,138.5 461.5,138.5C 461.8,143.099 461.467,147.599 460.5,152C 457.741,152.977 455.741,152.144 454.5,149.5C 453.833,146.5 453.167,143.5 452.5,140.5C 452.094,143.939 451.094,146.939 449.5,149.5C 449.5,146.5 449.5,143.5 449.5,140.5C 448.5,140.5 447.5,140.5 446.5,140.5C 446.5,144.5 446.5,148.5 446.5,152.5C 445.833,152.5 445.167,152.5 444.5,152.5C 444.5,147.833 444.5,143.167 444.5,138.5C 446.5,138.5 448.5,138.5 450.5,138.5C 450.715,136.821 450.048,135.821 448.5,135.5C 447.022,135.762 445.689,135.429 444.5,134.5C 450.463,133.504 456.463,133.171 462.5,133.5 Z"/></g>
<g><path style="opacity:1" fill="#a0a3a6" d="M 415.5,146.5 C 416.5,146.5 417.5,146.5 418.5,146.5C 418.826,142.116 418.492,137.783 417.5,133.5C 416.833,137.647 416.166,141.647 415.5,145.5C 415.5,141.167 415.5,136.833 415.5,132.5C 416.833,132.5 418.167,132.5 419.5,132.5C 419.5,137.5 419.5,142.5 419.5,147.5C 417.901,147.768 416.568,147.434 415.5,146.5 Z"/></g>
<g><path style="opacity:1" fill="#a2a4a8" d="M 421.5,131.5 C 422.568,130.566 423.901,130.232 425.5,130.5C 425.825,137.687 425.491,144.687 424.5,151.5C 424.5,144.833 424.5,138.167 424.5,131.5C 423.5,131.5 422.5,131.5 421.5,131.5 Z"/></g>
<g><path style="opacity:1" fill="#f2f5f6" d="M 400.5,131.5 C 404.833,131.5 409.167,131.5 413.5,131.5C 413.666,138.175 413.5,144.842 413,151.5C 410.8,152.99 408.966,152.657 407.5,150.5C 408.325,149.614 409.325,149.281 410.5,149.5C 410.5,148.167 410.5,146.833 410.5,145.5C 408.167,145.5 405.833,145.5 403.5,145.5C 403.5,147.833 403.5,150.167 403.5,152.5C 402.5,152.5 401.5,152.5 400.5,152.5C 400.5,145.5 400.5,138.5 400.5,131.5 Z"/></g>
<g><path style="opacity:1" fill="#a3a7ab" d="M 403.5,140.5 C 405.607,139.532 407.941,139.198 410.5,139.5C 410.5,140.833 410.5,142.167 410.5,143.5C 407.941,143.802 405.607,143.468 403.5,142.5C 411.5,141.833 411.5,141.167 403.5,140.5 Z"/></g>
<g><path style="opacity:1" fill="#242a2f" d="M 403.5,140.5 C 411.5,141.167 411.5,141.833 403.5,142.5C 403.5,141.833 403.5,141.167 403.5,140.5 Z"/></g>
<g><path style="opacity:1" fill="#2b2e33" d="M 403.5,134.5 C 405.833,134.5 408.167,134.5 410.5,134.5C 410.5,135.5 410.5,136.5 410.5,137.5C 408.167,137.5 405.833,137.5 403.5,137.5C 403.5,136.5 403.5,135.5 403.5,134.5 Z"/></g>
<g><path style="opacity:1" fill="#252b31" d="M 382.5,138.5 C 389.158,137.344 391.158,139.844 388.5,146C 386.527,146.495 384.527,146.662 382.5,146.5C 382.5,143.833 382.5,141.167 382.5,138.5 Z"/></g>
<g><path style="opacity:1" fill="#e4e7e8" d="M 442.5,144.5 C 442.5,145.5 442.5,146.5 442.5,147.5C 439.314,147.895 436.314,148.895 433.5,150.5C 432.139,146.926 433.473,145.26 437.5,145.5C 437.5,144.5 437.5,143.5 437.5,142.5C 436.325,142.719 435.325,142.386 434.5,141.5C 433.626,139.253 433.292,136.92 433.5,134.5C 434.5,134.5 435.5,134.5 436.5,134.5C 437.495,143.819 438.495,143.819 439.5,134.5C 440.325,133.614 441.325,133.281 442.5,133.5C 441.942,136.344 441.275,139.178 440.5,142C 440.684,143.376 441.351,144.209 442.5,144.5 Z"/></g>
<g><path style="opacity:1" fill="#7f8285" d="M 444.5,138.5 C 444.5,143.167 444.5,147.833 444.5,152.5C 443.833,150.833 443.167,149.167 442.5,147.5C 442.5,146.5 442.5,145.5 442.5,144.5C 443.048,142.374 443.715,140.374 444.5,138.5 Z"/></g>
<g><path style="opacity:1" fill="#96999b" d="M 449.5,149.5 C 448.683,147.031 448.183,144.365 448,141.5C 447.823,145.356 447.323,149.023 446.5,152.5C 446.5,148.5 446.5,144.5 446.5,140.5C 447.5,140.5 448.5,140.5 449.5,140.5C 449.5,143.5 449.5,146.5 449.5,149.5 Z"/></g>
<g><path style="opacity:1" fill="#292b2e" d="M 456.5,141.5 C 457.748,142.334 458.415,143.667 458.5,145.5C 458.167,146.833 457.833,148.167 457.5,149.5C 456.52,146.914 456.187,144.247 456.5,141.5 Z"/></g>
<g><path style="opacity:1" fill="#303640" d="M 286.5,65.5 C 287.499,109.664 287.832,153.997 287.5,198.5C 362.167,198.333 436.834,198.5 511.5,199C 436.501,199.5 361.501,199.667 286.5,199.5C 286.5,154.833 286.5,110.167 286.5,65.5 Z"/></g>
<g><path style="opacity:1" fill="#4a545b" d="M 276.5,59.5 C 276.5,109.833 276.5,160.167 276.5,210.5C 358.833,210.5 441.167,210.5 523.5,210.5C 523.5,210.833 523.5,211.167 523.5,211.5C 440.833,211.5 358.167,211.5 275.5,211.5C 275.168,160.664 275.501,109.997 276.5,59.5 Z"/></g>
<g><path style="opacity:1" fill="#fdfdfd" d="M 275.5,211.5 C 358.167,211.5 440.833,211.5 523.5,211.5C 523.666,218.175 523.5,224.842 523,231.5C 522.292,232.381 521.458,233.047 520.5,233.5C 492.165,233.667 463.831,233.5 435.5,233C 434.01,231.366 432.676,231.699 431.5,234C 409.761,234.178 388.094,234.678 366.5,235.5C 337.498,235.667 308.498,235.5 279.5,235C 278.333,233.833 277.167,232.667 276,231.5C 275.5,224.842 275.334,218.175 275.5,211.5 Z"/></g>
<g><path style="opacity:1" fill="#edefef" d="M 520.5,233.5 C 520.389,234.117 520.056,234.617 519.5,235C 490.835,235.5 462.169,235.667 433.5,235.5C 432.771,240.13 432.437,244.797 432.5,249.5C 411.49,247.847 390.323,246.847 369,246.5C 368.617,247.056 368.117,247.389 367.5,247.5C 367.495,243.466 367.162,239.466 366.5,235.5C 388.094,234.678 409.761,234.178 431.5,234C 432.676,231.699 434.01,231.366 435.5,233C 463.831,233.5 492.165,233.667 520.5,233.5 Z"/></g>
<g><path style="opacity:1" fill="#f7fcfc" d="M 432.5,249.5 C 432.263,250.791 432.596,251.791 433.5,252.5C 433.5,253.833 433.5,255.167 433.5,256.5C 440.648,257.492 447.981,257.825 455.5,257.5C 455.5,259.833 455.5,262.167 455.5,264.5C 418.167,264.5 380.833,264.5 343.5,264.5C 343.5,262.167 343.5,259.833 343.5,257.5C 351.167,257.5 358.833,257.5 366.5,257.5C 366.5,256.167 366.5,254.833 366.5,253.5C 367.461,251.735 367.795,249.735 367.5,247.5C 368.117,247.389 368.617,247.056 369,246.5C 390.323,246.847 411.49,247.847 432.5,249.5 Z"/></g>
<g><path style="opacity:1" fill="#43929a" d="M 366.5,253.5 C 366.5,254.833 366.5,256.167 366.5,257.5C 358.833,257.5 351.167,257.5 343.5,257.5C 342.539,259.265 342.205,261.265 342.5,263.5C 323.5,263.5 304.5,263.5 285.5,263.5C 285.932,259.501 286.932,255.668 288.5,252C 301.5,251.833 314.5,251.667 327.5,251.5C 340.851,251.501 353.851,252.167 366.5,253.5 Z"/></g>
<g><path style="opacity:1" fill="#419199" d="M 433.5,256.5 C 433.5,255.167 433.5,253.833 433.5,252.5C 459.328,251.502 485.328,251.169 511.5,251.5C 512.994,255.277 513.661,259.277 513.5,263.5C 494.542,263.451 475.709,263.451 457,263.5C 456.503,261.19 456.337,258.857 456.5,256.5C 448.833,256.5 441.167,256.5 433.5,256.5 Z"/></g>
</svg>
